<svg width="205" height="60" viewBox="0 0 205 60" fill="none" xmlns="http://www.w3.org/2000/svg">
<path d="M197.436 1.6688C200.938 1.6688 203.788 4.44735 203.788 7.86199V52.1123C203.788 55.5269 200.938 58.3055 197.436 58.3055H8.33222C4.83001 58.3055 1.98022 55.5269 1.98022 52.1123V7.86199C1.98022 4.44735 4.83001 1.6688 8.33222 1.6688H197.436ZM197.436 0.486946H8.33222C4.17382 0.486946 0.768066 3.80756 0.768066 7.86199V52.1123C0.768066 56.1667 4.17382 59.4873 8.33222 59.4873H197.436C201.594 59.4873 205 56.1667 205 52.1123V7.86199C205 3.80756 201.594 0.486946 197.436 0.486946Z" fill="white"/>
<path d="M46.3467 29.6684C46.3028 24.9145 50.339 22.6017 50.5236 22.494C48.2377 19.2445 44.6947 18.8006 43.4496 18.7652C40.4739 18.4598 37.5874 20.5012 36.0715 20.5012C34.5254 20.5012 32.1911 18.7947 29.6753 18.8448C26.4378 18.8935 23.4092 20.721 21.7481 23.5589C18.32 29.3454 20.8767 37.8488 24.161 42.5261C25.804 44.8168 27.7237 47.3744 30.2366 47.2845C32.6949 47.1856 33.6132 45.7564 36.5799 45.7564C39.5193 45.7564 40.3816 47.2845 42.9443 47.2269C45.5827 47.1856 47.2438 44.9259 48.8292 42.6146C50.7278 39.9891 51.4903 37.4034 51.5206 37.2706C51.4585 37.25 46.3966 35.3664 46.3467 29.6684Z" fill="white"/>
<path d="M41.5056 15.6883C42.8278 14.0761 43.7325 11.8828 43.4814 9.65698C41.5676 9.73958 39.1744 10.9476 37.7962 12.5244C36.5768 13.9139 35.4876 16.1913 35.769 18.333C37.9187 18.4893 40.1259 17.2754 41.5056 15.6883Z" fill="white"/>
<path d="M74.9722 15.2502C74.9722 16.9863 74.4382 18.2931 73.3717 19.1707C72.3838 19.9805 70.9799 20.3862 69.1615 20.3862C68.2598 20.3862 67.4883 20.3478 66.8423 20.2711V10.7853C67.6849 10.6526 68.5926 10.5847 69.5729 10.5847C71.3051 10.5847 72.6107 10.952 73.4912 11.6865C74.4775 12.517 74.9722 13.7044 74.9722 15.2502ZM73.3006 15.2929C73.3006 14.1675 72.995 13.3046 72.3838 12.7028C71.7726 12.1025 70.88 11.8016 69.7046 11.8016C69.2053 11.8016 68.7802 11.834 68.4277 11.9019V19.1132C68.6229 19.1427 68.9799 19.156 69.4988 19.156C70.7121 19.156 71.6486 18.8271 72.3081 18.1692C72.9677 17.5114 73.3006 16.5526 73.3006 15.2929Z" fill="white"/>
<path d="M83.8358 16.7665C83.8358 17.8359 83.5227 18.712 82.8963 19.3994C82.2398 20.1059 81.3699 20.4584 80.2837 20.4584C79.2368 20.4584 78.4032 20.1207 77.7815 19.4421C77.1612 18.7651 76.8511 17.9111 76.8511 16.8815C76.8511 15.8048 77.1703 14.9212 77.8117 14.2354C78.4532 13.5495 79.3155 13.2058 80.4017 13.2058C81.4486 13.2058 82.2897 13.5436 82.9266 14.2206C83.5317 14.8785 83.8358 15.7281 83.8358 16.7665ZM82.1914 16.8166C82.1914 16.175 82.0492 15.6248 81.7663 15.1661C81.4334 14.6115 80.9599 14.3342 80.3442 14.3342C79.7073 14.3342 79.2232 14.6115 78.8904 15.1661C78.606 15.6248 78.4653 16.1839 78.4653 16.8447C78.4653 17.4863 78.6075 18.0365 78.8904 18.4952C79.2338 19.0498 79.7118 19.3271 80.3291 19.3271C80.9342 19.3271 81.4092 19.0454 81.7511 18.4804C82.0446 18.0129 82.1914 17.4583 82.1914 16.8166Z" fill="white"/>
<path d="M95.7208 13.3474L93.4894 20.3006H92.0371L91.1127 17.2813C90.8782 16.5275 90.6876 15.7782 90.5394 15.0348H90.5106C90.373 15.7989 90.1823 16.5467 89.9373 17.2813L88.9554 20.3006H87.4865L85.3882 13.3474H87.0175L87.8238 16.6529C88.019 17.4347 88.1794 18.1795 88.3079 18.8846H88.3367C88.4547 18.3034 88.6498 17.563 88.9252 16.6677L89.9373 13.3489H91.2292L92.1989 16.5969C92.4334 17.3889 92.624 18.1515 92.7708 18.8861H92.8147C92.9221 18.1707 93.0839 17.4081 93.2988 16.5969L94.1641 13.3489H95.7208V13.3474Z" fill="white"/>
<path d="M103.94 20.3006H102.355V16.3181C102.355 15.0909 101.876 14.4773 100.917 14.4773C100.447 14.4773 100.067 14.6455 99.7721 14.9832C99.4802 15.321 99.3319 15.7193 99.3319 16.175V20.2992H97.7464V15.3343C97.7464 14.7236 97.7268 14.0613 97.689 13.3445H99.0823L99.1564 14.4316H99.2003C99.3848 14.0938 99.6602 13.815 100.022 13.5923C100.451 13.3327 100.932 13.2014 101.459 13.2014C102.125 13.2014 102.678 13.4109 103.118 13.8312C103.666 14.346 103.94 15.1145 103.94 16.1352V20.3006Z" fill="white"/>
<path d="M108.312 20.3006H106.728V10.157H108.312V20.3006Z" fill="white"/>
<path d="M117.646 16.7665C117.646 17.8359 117.333 18.712 116.707 19.3994C116.05 20.1059 115.179 20.4584 114.094 20.4584C113.046 20.4584 112.212 20.1207 111.592 19.4421C110.972 18.7651 110.662 17.9111 110.662 16.8815C110.662 15.8048 110.981 14.9212 111.622 14.2354C112.264 13.5495 113.126 13.2058 114.211 13.2058C115.259 13.2058 116.099 13.5436 116.737 14.2206C117.342 14.8785 117.646 15.7281 117.646 16.7665ZM116 16.8166C116 16.175 115.858 15.6248 115.575 15.1661C115.244 14.6115 114.769 14.3342 114.155 14.3342C113.516 14.3342 113.032 14.6115 112.701 15.1661C112.417 15.6248 112.276 16.1839 112.276 16.8447C112.276 17.4863 112.418 18.0365 112.701 18.4952C113.044 19.0498 113.522 19.3271 114.14 19.3271C114.745 19.3271 115.218 19.0454 115.56 18.4804C115.855 18.0129 116 17.4583 116 16.8166Z" fill="white"/>
<path d="M125.319 20.3006H123.895L123.777 19.4997H123.734C123.246 20.1384 122.552 20.4584 121.65 20.4584C120.977 20.4584 120.433 20.2475 120.023 19.8286C119.65 19.448 119.464 18.9746 119.464 18.4126C119.464 17.563 119.827 16.9155 120.558 16.4671C121.287 16.0187 122.313 15.7989 123.634 15.8092V15.6794C123.634 14.7634 123.141 14.3062 122.153 14.3062C121.449 14.3062 120.829 14.4787 120.293 14.8209L119.971 13.8061C120.634 13.4064 121.452 13.2058 122.417 13.2058C124.281 13.2058 125.216 14.1646 125.216 16.0821V18.6427C125.216 19.3374 125.251 19.8905 125.319 20.3006ZM123.673 17.9111V16.8388C121.924 16.8093 121.05 17.2768 121.05 18.24C121.05 18.6029 121.15 18.8743 121.354 19.0557C121.558 19.2371 121.818 19.3271 122.128 19.3271C122.476 19.3271 122.802 19.2194 123.098 19.0055C123.396 18.7902 123.579 18.5173 123.647 18.1825C123.664 18.1073 123.673 18.0158 123.673 17.9111Z" fill="white"/>
<path d="M134.328 20.3006H132.921L132.847 19.184H132.803C132.354 20.0336 131.588 20.4584 130.513 20.4584C129.654 20.4584 128.938 20.1295 128.371 19.4717C127.803 18.8138 127.521 17.9598 127.521 16.911C127.521 15.7856 127.828 14.8741 128.445 14.1779C129.042 13.5289 129.775 13.2044 130.646 13.2044C131.604 13.2044 132.274 13.5185 132.655 14.1484H132.685V10.157H134.272V18.4274C134.272 19.1044 134.29 19.7283 134.328 20.3006ZM132.685 17.3683V16.2089C132.685 16.0083 132.67 15.8461 132.641 15.7222C132.552 15.3505 132.36 15.0378 132.068 14.7856C131.773 14.5333 131.418 14.4065 131.008 14.4065C130.416 14.4065 129.953 14.6351 129.613 15.0938C129.275 15.5526 129.104 16.1381 129.104 16.8535C129.104 17.5409 129.266 18.0984 129.592 18.5277C129.935 18.9849 130.398 19.2135 130.977 19.2135C131.498 19.2135 131.914 19.0233 132.23 18.6412C132.536 18.2887 132.685 17.8639 132.685 17.3683Z" fill="white"/>
<path d="M147.888 16.7665C147.888 17.8359 147.574 18.712 146.948 19.3994C146.292 20.1059 145.423 20.4584 144.335 20.4584C143.29 20.4584 142.457 20.1207 141.833 19.4421C141.213 18.7651 140.903 17.9111 140.903 16.8815C140.903 15.8048 141.222 14.9212 141.863 14.2354C142.505 13.5495 143.367 13.2058 144.455 13.2058C145.5 13.2058 146.343 13.5436 146.978 14.2206C147.583 14.8785 147.888 15.7281 147.888 16.7665ZM146.245 16.8166C146.245 16.175 146.102 15.6248 145.82 15.1661C145.485 14.6115 145.013 14.3342 144.396 14.3342C143.761 14.3342 143.276 14.6115 142.942 15.1661C142.658 15.6248 142.517 16.1839 142.517 16.8447C142.517 17.4863 142.659 18.0365 142.942 18.4952C143.286 19.0498 143.764 19.3271 144.381 19.3271C144.986 19.3271 145.463 19.0454 145.804 18.4804C146.096 18.0129 146.245 17.4583 146.245 16.8166Z" fill="white"/>
<path d="M156.413 20.3006H154.829V16.3181C154.829 15.0909 154.351 14.4773 153.39 14.4773C152.919 14.4773 152.54 14.6455 152.246 14.9832C151.953 15.321 151.806 15.7193 151.806 16.175V20.2992H150.219V15.3343C150.219 14.7236 150.201 14.0613 150.163 13.3445H151.555L151.629 14.4316H151.673C151.859 14.0938 152.134 13.815 152.494 13.5923C152.926 13.3327 153.405 13.2014 153.933 13.2014C154.597 13.2014 155.151 13.4109 155.591 13.8312C156.14 14.346 156.413 15.1145 156.413 16.1352V20.3006Z" fill="white"/>
<path d="M167.083 14.5053H165.337V17.883C165.337 18.7415 165.647 19.1707 166.261 19.1707C166.546 19.1707 166.782 19.1471 166.968 19.0984L167.008 20.2711C166.695 20.3861 166.284 20.4437 165.777 20.4437C165.151 20.4437 164.664 20.2578 164.311 19.8861C163.957 19.5144 163.782 18.889 163.782 18.0114V14.5053H162.739V13.3474H163.782V12.073L165.335 11.6157V13.3459H167.081V14.5053H167.083Z" fill="white"/>
<path d="M175.476 20.3006H173.889V16.3476C173.889 15.1012 173.411 14.4773 172.453 14.4773C171.718 14.4773 171.216 14.8387 170.94 15.5614C170.893 15.7133 170.866 15.8992 170.866 16.1175V20.2991H169.282V10.157H170.866V14.3475H170.896C171.396 13.5849 172.111 13.2044 173.039 13.2044C173.695 13.2044 174.238 13.4138 174.669 13.8342C175.206 14.3578 175.476 15.1366 175.476 16.1662V20.3006Z" fill="white"/>
<path d="M184.133 16.4952C184.133 16.7725 184.112 17.0055 184.074 17.1958H179.319C179.341 17.8832 179.568 18.4068 180.008 18.7696C180.41 19.0941 180.929 19.2564 181.564 19.2564C182.268 19.2564 182.909 19.1472 183.487 18.9275L183.735 20.0013C183.059 20.2874 182.263 20.4305 181.342 20.4305C180.238 20.4305 179.368 20.1134 178.738 19.4791C178.106 18.8449 177.793 17.9938 177.793 16.9259C177.793 15.8771 178.085 15.0039 178.673 14.3077C179.288 13.5643 180.118 13.1926 181.167 13.1926C182.192 13.1926 182.971 13.5643 183.498 14.3077C183.923 14.8977 184.133 15.6279 184.133 16.4952ZM182.62 16.0954C182.633 15.6367 182.528 15.2414 182.313 14.9081C182.038 14.4788 181.619 14.2635 181.052 14.2635C180.534 14.2635 180.112 14.4729 179.79 14.8933C179.527 15.2281 179.371 15.6279 179.319 16.0954H182.62Z" fill="white"/>
<path d="M81.9239 46.9554H78.4882L76.6063 41.1895H70.0648L68.2721 46.9554H64.9272L71.4082 27.3259H75.4112L81.9239 46.9554ZM76.039 38.7705L74.337 33.6449C74.157 33.1212 73.8197 31.8881 73.3219 29.947H73.2614C73.0632 30.7819 72.744 32.015 72.3053 33.6449L70.6336 38.7705H76.039Z" fill="white"/>
<path d="M98.5909 39.7044C98.5909 42.1116 97.9237 44.0143 96.5894 45.4112C95.3943 46.6546 93.9102 47.2756 92.1387 47.2756C90.2265 47.2756 88.8528 46.6059 88.0162 45.2666H87.9557V52.7228H84.7304V37.4609C84.7304 35.9475 84.6895 34.3943 84.6108 32.8013H87.4474L87.6274 35.0448H87.6879C88.7636 33.3544 90.3959 32.5107 92.5865 32.5107C94.299 32.5107 95.7286 33.1701 96.8723 34.4902C98.019 35.8118 98.5909 37.5494 98.5909 39.7044ZM95.305 39.8194C95.305 38.4418 94.9873 37.306 94.3489 36.4121C93.6515 35.4799 92.7151 35.0138 91.5411 35.0138C90.7454 35.0138 90.0222 35.2734 89.3762 35.7853C88.7288 36.3015 88.3052 36.9756 88.107 37.8105C88.0071 38.1999 87.9572 38.5185 87.9572 38.7692V41.1292C87.9572 42.1588 88.281 43.0276 88.9285 43.737C89.5759 44.4465 90.4171 44.8005 91.4519 44.8005C92.6667 44.8005 93.6122 44.3433 94.2884 43.4317C94.9662 42.5187 95.305 41.3151 95.305 39.8194Z" fill="white"/>
<path d="M115.288 39.7044C115.288 42.1116 114.62 44.0143 113.285 45.4112C112.091 46.6546 110.607 47.2756 108.835 47.2756C106.923 47.2756 105.55 46.6059 104.714 45.2666H104.654V52.7228H101.429V37.4609C101.429 35.9475 101.388 34.3943 101.309 32.8013H104.146L104.326 35.0448H104.386C105.46 33.3544 107.093 32.5107 109.285 32.5107C110.996 32.5107 112.425 33.1701 113.572 34.4902C114.714 35.8118 115.288 37.5494 115.288 39.7044ZM112.002 39.8194C112.002 38.4418 111.683 37.306 111.044 36.4121C110.347 35.4799 109.413 35.0138 108.238 35.0138C107.441 35.0138 106.719 35.2734 106.071 35.7853C105.424 36.3015 105.002 36.9756 104.804 37.8105C104.705 38.1999 104.654 38.5185 104.654 38.7692V41.1292C104.654 42.1588 104.978 43.0276 105.622 43.737C106.27 44.445 107.111 44.8005 108.149 44.8005C109.363 44.8005 110.309 44.3433 110.985 43.4317C111.663 42.5187 112.002 41.3151 112.002 39.8194Z" fill="white"/>
<path d="M133.956 41.4506C133.956 43.1204 133.362 44.4788 132.168 45.5276C130.856 46.6737 129.03 47.246 126.684 47.246C124.518 47.246 122.781 46.8389 121.466 46.0232L122.214 43.4021C123.63 44.2369 125.183 44.6558 126.876 44.6558C128.091 44.6558 129.037 44.3874 129.716 43.8534C130.392 43.3195 130.729 42.6026 130.729 41.7088C130.729 40.9123 130.451 40.2411 129.893 39.6969C129.338 39.1526 128.41 38.6467 127.115 38.1791C123.59 36.8973 121.829 35.0196 121.829 32.5504C121.829 30.9368 122.447 29.6137 123.683 28.5841C124.914 27.5531 126.557 27.0383 128.611 27.0383C130.443 27.0383 131.965 27.3496 133.18 27.9705L132.374 30.5341C131.239 29.9323 129.956 29.6314 128.521 29.6314C127.386 29.6314 126.5 29.9043 125.864 30.4471C125.327 30.9324 125.058 31.5238 125.058 32.2245C125.058 33.0003 125.365 33.6419 125.982 34.1464C126.519 34.6125 127.495 35.117 128.911 35.6612C130.643 36.3412 131.915 37.1362 132.734 38.0478C133.549 38.9564 133.956 40.0936 133.956 41.4506Z" fill="white"/>
<path d="M144.62 35.1612H141.065V42.0332C141.065 43.7811 141.691 44.6543 142.947 44.6543C143.523 44.6543 144.002 44.6057 144.38 44.5083L144.469 46.8963C143.834 47.1279 142.997 47.2445 141.961 47.2445C140.687 47.2445 139.691 46.8654 138.973 46.1087C138.257 45.3505 137.897 44.0791 137.897 42.2928V35.1582H135.779V32.7982H137.897V30.2066L141.065 29.2744V32.7982H144.62V35.1612Z" fill="white"/>
<path d="M160.66 39.7619C160.66 41.9375 160.022 43.7238 158.748 45.1206C157.412 46.5587 155.639 47.2756 153.429 47.2756C151.299 47.2756 149.603 46.5867 148.338 45.2091C147.074 43.8314 146.441 42.0924 146.441 39.9964C146.441 37.8031 147.092 36.0065 148.397 34.6097C149.7 33.2114 151.458 32.5122 153.668 32.5122C155.798 32.5122 157.512 33.201 158.806 34.5802C160.043 35.918 160.66 37.6452 160.66 39.7619ZM157.314 39.8637C157.314 38.5583 157.028 37.4387 156.449 36.5051C155.773 35.3752 154.806 34.8117 153.553 34.8117C152.257 34.8117 151.272 35.3767 150.596 36.5051C150.016 37.4402 149.73 38.5774 149.73 39.9227C149.73 41.228 150.016 42.3476 150.596 43.2798C151.293 44.4096 152.267 44.9731 153.524 44.9731C154.756 44.9731 155.723 44.3978 156.42 43.2503C157.015 42.2989 157.314 41.1676 157.314 39.8637Z" fill="white"/>
<path d="M171.144 35.567C170.825 35.5094 170.485 35.4799 170.128 35.4799C168.993 35.4799 168.116 35.8974 167.498 36.7337C166.961 37.4712 166.692 38.4034 166.692 39.5288V46.9555H163.468L163.498 37.2588C163.498 35.6274 163.458 34.1421 163.377 32.8028H166.187L166.305 35.5109H166.394C166.734 34.5802 167.271 33.8309 168.007 33.2689C168.725 32.763 169.501 32.5107 170.338 32.5107C170.636 32.5107 170.905 32.5314 171.144 32.5683V35.567Z" fill="white"/>
<path d="M185.569 39.2087C185.569 39.7722 185.532 40.2471 185.451 40.635H175.775C175.813 42.0333 176.281 43.1027 177.179 43.8402C177.995 44.4996 179.049 44.83 180.344 44.83C181.777 44.83 183.084 44.6072 184.259 44.1603L184.765 46.3433C183.391 46.9274 181.769 47.218 179.898 47.218C177.647 47.218 175.88 46.5719 174.594 45.2813C173.311 43.9907 172.668 42.2575 172.668 40.0834C172.668 37.949 173.266 36.1717 174.462 34.7542C175.715 33.2408 177.408 32.4841 179.538 32.4841C181.63 32.4841 183.214 33.2408 184.29 34.7542C185.141 35.9563 185.569 37.4431 185.569 39.2087ZM182.494 38.393C182.515 37.4608 182.305 36.6555 181.867 35.9755C181.309 35.1008 180.451 34.6642 179.297 34.6642C178.243 34.6642 177.385 35.0905 176.73 35.946C176.193 36.626 175.874 37.4416 175.775 38.3915H182.494V38.393Z" fill="white"/>
</svg>
