<svg width="821" height="345" viewBox="0 0 821 345" fill="none" xmlns="http://www.w3.org/2000/svg">
<path d="M318.706 281.876C308.318 284.311 297.664 285.922 286.758 286.533C256.428 288.228 225.706 282.099 195.995 276.171C190.611 275.097 185.23 274.026 179.856 272.996C144.942 266.319 107.945 261.47 73.865 271.12C36.3322 281.751 8.16549 310.656 2.10079 344.76L0.173258 344.286C6.37309 309.423 35.0782 279.9 73.2995 269.076C107.72 259.331 144.991 264.197 180.129 270.92C185.51 271.948 190.894 273.022 196.283 274.099C225.883 280.003 256.488 286.108 286.588 284.428C363.605 280.125 428.463 225.264 470.54 184.369C483.146 172.119 495.704 159.24 507.847 146.782C545.822 107.83 585.088 67.5518 631.942 40.2362C706.05 -2.97059 799.267 -11.0592 881.287 18.5937C902.199 26.155 922.679 36.1301 942.486 45.7787C956.84 52.7676 971.677 59.9984 986.555 66.247C1029.58 84.3144 1065.57 89.9346 1096.58 83.4347C1135.79 75.2282 1166.9 44.1904 1172.36 7.96202L1174.3 8.37207C1168.72 45.4218 1136.89 77.1033 1097.02 85.5071C1065.64 92.0838 1029.29 86.4264 985.903 68.2087C970.975 61.9408 956.109 54.6971 941.734 47.6937C921.972 38.0697 901.539 28.1146 880.726 20.5889C799.209 -8.8812 706.574 -0.84296 632.921 42.0969C586.286 69.287 547.111 109.473 509.225 148.334C497.073 160.798 484.507 173.691 471.884 185.957C435.529 221.282 382.244 266.98 318.706 281.876Z" fill="#B5F6FF"/>
</svg>
