<svg width="137" height="113" viewBox="0 0 137 113" fill="none" xmlns="http://www.w3.org/2000/svg">
<path d="M29.7797 39.7331C29.1243 39.8205 28.6603 40.422 28.7478 41.0798C28.8815 42.0856 29.0773 43.0849 29.3309 44.0494C29.4797 44.612 30.0053 44.9775 30.5654 44.9418C30.642 44.937 30.7206 44.9248 30.7962 44.9055C31.4369 44.7374 31.8181 44.081 31.65 43.4404C31.4217 42.5728 31.2443 41.6732 31.124 40.7652C31.0389 40.1072 30.4352 39.6481 29.7797 39.7331Z" fill="white"/>
<path d="M1.442 9.62102C1.31953 10.6046 1.22893 11.5982 1.17557 12.5726C1.14071 13.2333 1.64782 13.7995 2.30858 13.8344C2.35676 13.8361 2.40479 13.8355 2.45027 13.8326C3.04871 13.7945 3.53727 13.314 3.57039 12.7014C3.62023 11.7849 3.7049 10.8494 3.82115 9.91907C3.90434 9.26244 3.43835 8.66239 2.78172 8.5792C2.12285 8.49855 1.5228 8.96455 1.442 9.62102Z" fill="white"/>
<path d="M45.4897 17.91C46.3451 17.7931 47.2463 17.7526 48.1476 17.7914C48.191 17.7934 48.2343 17.7931 48.2773 17.7903C48.8806 17.7519 49.3711 17.2641 49.3989 16.6446C49.4265 15.9819 48.9126 15.4234 48.2523 15.3957C47.2088 15.3515 46.1639 15.3988 45.1655 15.5344C44.5103 15.6242 44.0513 16.2302 44.1411 16.8855C44.2286 17.5433 44.8323 18.0024 45.4897 17.91Z" fill="white"/>
<path d="M53.3885 18.883C54.2283 19.1997 55.0506 19.5824 55.8307 20.0206C56.0402 20.1395 56.2691 20.1874 56.4942 20.1731C56.8867 20.1481 57.2575 19.9322 57.4648 19.5633C57.7885 18.9851 57.5835 18.2555 57.0075 17.9292C56.1225 17.4304 55.1889 16.9971 54.2358 16.6371C53.6154 16.405 52.9237 16.7158 52.6916 17.3362C52.4547 17.957 52.7679 18.6485 53.3885 18.883Z" fill="white"/>
<path d="M57.4458 45.8463C57.9783 45.4519 58.0891 44.6997 57.6948 44.1696C57.3006 43.6395 56.5507 43.5262 56.0182 43.9206C55.2952 44.4569 54.5247 44.9626 53.7252 45.4293C53.1528 45.7637 52.9591 46.4971 53.2936 47.0695C53.5309 47.475 53.9676 47.6899 54.408 47.6619C54.5875 47.6505 54.7693 47.5981 54.9338 47.5011C55.8074 46.9912 56.6541 46.435 57.4458 45.8463Z" fill="white"/>
<path d="M54.4773 64.7244C53.8445 64.5244 53.2058 64.3079 52.5806 64.076C51.9603 63.8463 51.2691 64.1643 51.0396 64.787C50.8099 65.4073 51.1278 66.0985 51.7505 66.328C52.4126 66.5719 53.0882 66.8029 53.7577 67.0127C54.0226 67.0967 54.2898 67.1783 54.5568 67.2574C54.6965 67.299 54.8368 67.3141 54.9733 67.3054C55.4616 67.2744 55.8997 66.9461 56.0484 66.4487C56.2363 65.8142 55.8742 65.1475 55.2396 64.9571C54.9849 64.882 54.7324 64.8044 54.4773 64.7244Z" fill="white"/>
<path d="M123.258 85.3696C122.685 85.6993 122.487 86.4329 122.819 87.0078C123.281 87.8076 123.708 88.6337 124.093 89.4672C124.307 89.9294 124.778 90.1927 125.26 90.1621C125.403 90.1529 125.548 90.1173 125.685 90.0533C126.288 89.7746 126.55 89.0633 126.271 88.4609C125.856 87.5644 125.396 86.6708 124.898 85.8084C124.564 85.236 123.833 85.0398 123.258 85.3696Z" fill="white"/>
<path d="M60.1042 21.6474C59.6108 22.0898 59.5701 22.8471 60.0125 23.3405C60.6128 24.0113 61.1437 24.725 61.5848 25.4636C61.8241 25.8618 62.2581 26.0721 62.6913 26.0445C62.8757 26.0328 63.0596 25.9778 63.231 25.8756C63.7981 25.5342 63.9844 24.7989 63.643 24.2294C63.1213 23.3589 62.5008 22.5212 61.7971 21.7367C61.3549 21.2457 60.5975 21.2026 60.1042 21.6474Z" fill="white"/>
<path d="M117.705 78.7867C117.248 79.2653 117.265 80.0237 117.744 80.4835C118.394 81.1055 119.03 81.7812 119.635 82.4878C119.89 82.7864 120.259 82.9288 120.626 82.9054C120.875 82.8896 121.121 82.7946 121.326 82.6205C121.83 82.1895 121.89 81.4334 121.459 80.9297C120.802 80.1615 120.111 79.4268 119.402 78.7484C118.921 78.2911 118.163 78.3082 117.705 78.7867Z" fill="white"/>
<path d="M32.6859 23.7672C32.128 24.5934 31.6145 25.4745 31.1608 26.3903C30.8669 26.9834 31.1074 27.7036 31.7005 27.9975C31.8966 28.0956 32.1057 28.1327 32.3092 28.1198C32.7233 28.0934 33.1095 27.8549 33.3077 27.4578C33.7147 26.6387 34.1762 25.8475 34.6748 25.1091C35.046 24.5592 34.9 23.8138 34.3526 23.4448C33.8026 23.0736 33.0571 23.2172 32.6859 23.7672Z" fill="white"/>
<path d="M37.6167 21.3962C37.8561 21.381 38.0933 21.2938 38.2921 21.1321C38.9915 20.5661 39.7356 20.0597 40.5058 19.6237C41.081 19.2963 41.2844 18.5647 40.957 17.9895C40.6296 17.4143 39.898 17.2109 39.3228 17.5383C38.4414 18.039 37.5866 18.6198 36.7842 19.2669C36.27 19.6842 36.1883 20.4392 36.6055 20.9535C36.861 21.2665 37.2433 21.42 37.6167 21.3962Z" fill="white"/>
<path d="M45.1458 49.8569C45.279 50.4396 45.813 50.8239 46.3899 50.7871C46.4521 50.7832 46.5164 50.7743 46.5803 50.7582C47.4901 50.5513 48.3995 50.3011 49.2828 50.019C49.344 49.9983 49.4053 49.98 49.4665 49.9593C50.0948 49.7486 50.4338 49.0709 50.2256 48.4424C50.0174 47.814 49.3396 47.475 48.7088 47.6833L48.551 47.7342C47.7338 47.9977 46.8905 48.2293 46.0494 48.4198C45.4027 48.5691 44.999 49.2125 45.1458 49.8569Z" fill="white"/>
<path d="M29.1577 32.0792C28.9388 33.057 28.7765 34.0575 28.6717 35.0544C28.603 35.7125 29.0804 36.3022 29.7409 36.3707C29.8087 36.3784 29.876 36.379 29.943 36.3747C30.5175 36.3381 30.9962 35.8919 31.0572 35.3016C31.1511 34.3967 31.2998 33.4859 31.4981 32.5985C31.642 31.9524 31.2358 31.3101 30.5898 31.1661C29.9415 31.0247 29.3017 31.4332 29.1577 32.0792Z" fill="white"/>
<path d="M45.0633 60.3892C44.5026 60.0379 43.7634 60.2051 43.4097 60.766C43.0561 61.3269 43.2257 62.0659 43.7865 62.4196C44.6127 62.939 45.4762 63.4393 46.3494 63.9053C46.5535 64.0149 46.775 64.0585 46.988 64.0449C47.3878 64.0195 47.7675 63.7934 47.9716 63.4127C48.2829 62.8281 48.0637 62.1018 47.4791 61.7905C46.6555 61.3502 45.8419 60.878 45.0633 60.3892Z" fill="white"/>
<path d="M16.502 43.7893C16.8396 43.7678 17.1657 43.6052 17.385 43.3125C17.7839 42.7824 17.6761 42.0321 17.1484 41.6331C16.4062 41.0747 15.6764 40.4842 14.9841 39.8769C14.4852 39.44 13.7289 39.4905 13.292 39.9894C12.8551 40.4883 12.9056 41.2446 13.4045 41.6815C14.1425 42.3267 14.9181 42.9575 15.7082 43.5514C15.943 43.7287 16.2244 43.8069 16.502 43.7893Z" fill="white"/>
<path d="M80.5949 67.9584L79.5927 67.9212C78.9688 67.8984 78.3447 67.8733 77.7208 67.8505C77.0582 67.8253 76.5021 68.339 76.4745 69.0017C76.4494 69.6643 76.9631 70.2204 77.6258 70.248C78.2523 70.273 78.8762 70.2958 79.5027 70.3208L80.5049 70.358C80.5459 70.3602 80.5867 70.36 80.6274 70.3574C81.233 70.3188 81.7256 69.826 81.7487 69.2069C81.7736 68.5395 81.2575 67.9835 80.5949 67.9584Z" fill="white"/>
<path d="M71.9963 67.5703C70.9828 67.5074 70.0533 67.4416 69.1496 67.3669C68.4875 67.3105 67.9108 67.8039 67.8543 68.4636C67.8001 69.1232 68.2912 69.7024 68.951 69.759C69.8715 69.835 70.8181 69.9045 71.8459 69.9665C71.8966 69.9705 71.9471 69.9697 71.9973 69.9665C72.591 69.9287 73.0798 69.453 73.1179 68.8425C73.1598 68.1788 72.6573 67.61 71.9963 67.5703Z" fill="white"/>
<path d="M65.6393 30.5221C65.6314 30.3976 65.6211 30.2733 65.6109 30.1513C65.5521 29.4917 64.9637 29.0076 64.3089 29.0661C63.6493 29.1249 63.1625 29.7087 63.2237 30.3682C63.2326 30.4709 63.2416 30.5737 63.2481 30.6766C63.2719 31.0501 63.2768 31.4295 63.2623 31.8054C63.2485 32.1932 63.2135 32.5872 63.1636 32.9749C63.0781 33.6317 63.5394 34.2344 64.1962 34.32C64.2761 34.3294 64.3532 34.3317 64.4298 34.3268C64.9899 34.2911 65.4651 33.8643 65.5412 33.2851C65.6008 32.8246 65.6408 32.3582 65.6594 31.8956C65.6737 31.4404 65.6683 30.9769 65.6393 30.5221Z" fill="white"/>
<path d="M106.507 71.4839C105.596 71.1838 104.645 70.9006 103.682 70.6422C103.041 70.4715 102.386 70.8521 102.215 71.4903C102.044 72.1308 102.425 72.7868 103.063 72.9577C103.982 73.202 104.886 73.4714 105.755 73.7598C105.905 73.8103 106.057 73.827 106.206 73.8176C106.68 73.7874 107.112 73.4739 107.269 72.9953C107.479 72.369 107.138 71.6913 106.507 71.4839Z" fill="white"/>
<path d="M63.0961 37.4977C62.5201 37.1714 61.7879 37.3742 61.4617 37.9502C61.034 38.708 60.5263 39.4542 59.9542 40.1708C59.5401 40.6874 59.6242 41.4439 60.1407 41.8557C60.3838 42.0494 60.6776 42.134 60.9649 42.1157C61.2904 42.095 61.6052 41.9428 61.8256 41.6668C62.4779 40.8514 63.058 39.9973 63.5484 39.1297C63.8748 38.5561 63.672 37.8239 63.0961 37.4977Z" fill="white"/>
<path d="M24.9302 47.4851C25.2042 46.8813 24.938 46.1724 24.3341 45.8983C23.4901 45.5146 22.6486 45.0947 21.8369 44.6512C21.2568 44.3349 20.5278 44.5495 20.209 45.1298C19.8902 45.7101 20.1072 46.4389 20.6875 46.7577C21.5515 47.2291 22.4427 47.6747 23.341 48.0814C23.5266 48.1657 23.721 48.199 23.9125 48.1868C24.3409 48.1571 24.7404 47.901 24.9302 47.4851Z" fill="white"/>
<path d="M89.2625 68.3968C88.34 68.3282 87.3915 68.2659 86.3666 68.211C85.7031 68.1715 85.1394 68.6808 85.1022 69.3418C85.0649 70.0027 85.572 70.5689 86.233 70.6061C87.2436 70.662 88.1752 70.7229 89.0831 70.7901C89.1386 70.7938 89.194 70.795 89.2491 70.7915C89.8379 70.7541 90.3226 70.2882 90.3683 69.6844C90.4175 69.0227 89.9218 68.4462 89.2625 68.3968Z" fill="white"/>
<path d="M114.604 75.1144C113.762 74.6176 112.884 74.1447 111.991 73.7065C111.395 73.4151 110.678 73.6602 110.386 74.2556C110.095 74.851 110.34 75.5684 110.936 75.8598C111.774 76.2703 112.598 76.7154 113.384 77.1797C113.599 77.3054 113.838 77.3599 114.07 77.3451C114.453 77.3207 114.817 77.1125 115.028 76.7578C115.364 76.186 115.176 75.4506 114.604 75.1144Z" fill="white"/>
<path d="M63.505 66.7337C62.5492 66.5951 61.6115 66.4384 60.7163 66.2695C60.0642 66.1451 59.4378 66.5744 59.3159 67.2263C59.1939 67.8781 59.6208 68.5047 60.2726 68.6267C61.2018 68.8007 62.1735 68.9624 63.1608 69.1062C63.2457 69.1176 63.3301 69.1219 63.4115 69.1167C63.9644 69.0815 64.4378 68.6644 64.5215 68.0919C64.6145 67.4371 64.1624 66.8289 63.505 66.7337Z" fill="white"/>
<path d="M34.1585 52.7529C34.3619 52.74 34.5644 52.6742 34.7467 52.5544C35.2978 52.1877 35.4474 51.4427 35.0807 50.8916C34.568 50.1239 34.0943 49.3273 33.6707 48.525C33.3618 47.939 32.6362 47.716 32.0502 48.0249C31.892 48.1071 31.7622 48.2211 31.6601 48.3526C30.9604 48.1976 30.2592 48.0187 29.569 47.8223C28.9324 47.6393 28.2685 48.0084 28.0855 48.6449C27.9025 49.2815 28.2716 49.9454 28.9105 50.1282C29.8627 50.3993 30.8345 50.6379 31.7939 50.834C31.94 50.8632 32.0844 50.866 32.2199 50.843C32.4947 51.3086 32.7835 51.7685 33.0837 52.218C33.3285 52.5894 33.7443 52.7793 34.1585 52.7529Z" fill="white"/>
<path d="M40.5628 49.1559C39.6497 49.1972 38.7149 49.199 37.7871 49.1595C37.1269 49.1343 36.566 49.6482 36.5407 50.3084C36.5132 50.9711 37.0294 51.5295 37.6895 51.5548C38.6847 51.5948 39.6869 51.5935 40.6671 51.5504C40.6743 51.5499 40.6839 51.5493 40.6911 51.5488C41.3422 51.5074 41.8428 50.9516 41.8133 50.2997C41.7834 49.6407 41.2244 49.1283 40.5628 49.1559Z" fill="white"/>
<path d="M38.5636 55.1785C38.1009 54.7057 37.3408 54.6964 36.8678 55.1567C36.3949 55.6194 36.3856 56.3795 36.8459 56.8525C37.5298 57.5516 38.2584 58.2383 39.0139 58.8921C39.2607 59.1071 39.572 59.2026 39.876 59.1833C40.1848 59.1636 40.486 59.0243 40.7055 58.7724C41.1399 58.2713 41.0845 57.5153 40.5858 57.0808C39.8788 56.4696 39.1988 55.8303 38.5636 55.1785Z" fill="white"/>
<path d="M97.946 69.4114C97.0179 69.2542 96.0449 69.1094 95.0537 68.9802C94.3967 68.8922 93.7941 69.356 93.7086 70.0128C93.623 70.6696 94.0843 71.2723 94.7411 71.3579C95.7033 71.4841 96.6447 71.6237 97.5437 71.7756C97.636 71.7914 97.73 71.795 97.8209 71.7892C98.3643 71.7546 98.8314 71.3524 98.9255 70.7912C99.0403 70.1397 98.5995 69.5213 97.946 69.4114Z" fill="white"/>
<path d="M9.38695 33.7003C9.00406 33.1599 8.25566 33.0321 7.71522 33.4149C7.17477 33.7978 7.04695 34.5462 7.42984 35.0867C7.9975 35.887 8.60795 36.6797 9.2453 37.4419C9.50015 37.7453 9.87482 37.8921 10.2411 37.8688C10.4876 37.8531 10.7317 37.7607 10.9348 37.5915C11.4437 37.165 11.5086 36.411 11.0845 35.902C10.4886 35.1877 9.9176 34.4477 9.38695 33.7003Z" fill="white"/>
<path d="M3.09346 22.4177C3.74463 22.3017 4.17842 21.6781 4.06247 21.0269C3.9015 20.1214 3.77283 19.1947 3.68291 18.2727C3.61932 17.6134 3.04064 17.1311 2.37416 17.1951C1.71485 17.2587 1.23299 17.8445 1.29658 18.5039C1.393 19.4903 1.52818 20.4816 1.70269 21.4487C1.81095 22.0547 2.35664 22.4718 2.95747 22.4335C3.00295 22.4306 3.04828 22.4254 3.09346 22.4177Z" fill="white"/>
<path d="M6.57863 28.9232C6.18179 28.0881 5.81709 27.2292 5.50057 26.3721C5.2711 25.7498 4.58039 25.4332 3.96048 25.6625C3.33817 25.892 3.0216 26.5827 3.25092 27.2026C3.59325 28.1254 3.98391 29.0523 4.41135 29.9528C4.62777 30.4077 5.09592 30.664 5.56988 30.6338C5.7183 30.6244 5.86727 30.586 6.00964 30.5193C6.60929 30.236 6.86179 29.5205 6.57863 28.9232Z" fill="white"/>
<path d="M117.062 88.9293C120.976 92.8766 124.852 99.4028 127.221 104.713C128.888 99.146 131.899 92.1767 135.276 87.7606L126.382 91.6385L117.062 88.9293Z" fill="white"/>
</svg>
