<svg width="36" height="36" viewBox="0 0 36 36" fill="none" xmlns="http://www.w3.org/2000/svg">
<path d="M14.6062 22.3313H21.3938C21.6424 22.3313 21.8808 22.2325 22.0567 22.0567C22.2325 21.8808 22.3313 21.6424 22.3313 21.3938V14.6062C22.3313 14.3576 22.2325 14.1192 22.0567 13.9433C21.8808 13.7675 21.6424 13.6687 21.3938 13.6687H14.6062C14.3576 13.6687 14.1192 13.7675 13.9433 13.9433C13.7675 14.1192 13.6687 14.3576 13.6687 14.6062V21.3938C13.6687 21.6424 13.7675 21.8808 13.9433 22.0567C14.1192 22.2325 14.3576 22.3313 14.6062 22.3313ZM15.5437 15.5437H20.4563V20.4563H15.5437V15.5437ZM32.0625 18.9375C32.3111 18.9375 32.5496 18.8387 32.7254 18.6629C32.9012 18.4871 33 18.2486 33 18C33 17.7514 32.9012 17.5129 32.7254 17.3371C32.5496 17.1613 32.3111 17.0625 32.0625 17.0625H28.7062V12.2953H32.0625C32.3111 12.2953 32.5496 12.1965 32.7254 12.0207C32.9012 11.8449 33 11.6065 33 11.3578C33 11.1092 32.9012 10.8707 32.7254 10.6949C32.5496 10.5191 32.3111 10.4203 32.0625 10.4203H28.7062V8.23125C28.7062 7.98261 28.6075 7.74415 28.4317 7.56834C28.2558 7.39252 28.0174 7.29375 27.7687 7.29375H25.5797V3.9375C25.5797 3.68886 25.4809 3.4504 25.3051 3.27459C25.1293 3.09877 24.8908 3 24.6422 3C24.3935 3 24.1551 3.09877 23.9793 3.27459C23.8035 3.4504 23.7047 3.68886 23.7047 3.9375V7.29375H18.9375V3.9375C18.9375 3.68886 18.8387 3.4504 18.6629 3.27459C18.4871 3.09877 18.2486 3 18 3C17.7514 3 17.5129 3.09877 17.3371 3.27459C17.1613 3.4504 17.0625 3.68886 17.0625 3.9375V7.29375H12.2953V3.9375C12.2953 3.68886 12.1965 3.4504 12.0207 3.27459C11.8449 3.09877 11.6065 3 11.3578 3C11.1092 3 10.8707 3.09877 10.6949 3.27459C10.5191 3.4504 10.4203 3.68886 10.4203 3.9375V7.29375H8.23125C7.98261 7.29375 7.74415 7.39252 7.56834 7.56834C7.39252 7.74415 7.29375 7.98261 7.29375 8.23125V10.4203H3.9375C3.68886 10.4203 3.4504 10.5191 3.27459 10.6949C3.09877 10.8707 3 11.1092 3 11.3578C3 11.6065 3.09877 11.8449 3.27459 12.0207C3.4504 12.1965 3.68886 12.2953 3.9375 12.2953H7.29375V17.0625H3.9375C3.68886 17.0625 3.4504 17.1613 3.27459 17.3371C3.09877 17.5129 3 17.7514 3 18C3 18.2486 3.09877 18.4871 3.27459 18.6629C3.4504 18.8387 3.68886 18.9375 3.9375 18.9375H7.29375V23.7047H3.9375C3.68886 23.7047 3.4504 23.8035 3.27459 23.9793C3.09877 24.1551 3 24.3935 3 24.6422C3 24.8908 3.09877 25.1293 3.27459 25.3051C3.4504 25.4809 3.68886 25.5797 3.9375 25.5797H7.29375V27.7687C7.29375 28.0174 7.39252 28.2558 7.56834 28.4317C7.74415 28.6075 7.98261 28.7062 8.23125 28.7062H10.4203V32.0625C10.4203 32.3111 10.5191 32.5496 10.6949 32.7254C10.8707 32.9012 11.1092 33 11.3578 33C11.6065 33 11.8449 32.9012 12.0207 32.7254C12.1965 32.5496 12.2953 32.3111 12.2953 32.0625V28.7062H17.0625V32.0625C17.0625 32.3111 17.1613 32.5496 17.3371 32.7254C17.5129 32.9012 17.7514 33 18 33C18.2486 33 18.4871 32.9012 18.6629 32.7254C18.8387 32.5496 18.9375 32.3111 18.9375 32.0625V28.7062H23.7047V32.0625C23.7047 32.3111 23.8035 32.5496 23.9793 32.7254C24.1551 32.9012 24.3935 33 24.6422 33C24.8908 33 25.1293 32.9012 25.3051 32.7254C25.4809 32.5496 25.5797 32.3111 25.5797 32.0625V28.7062H27.7687C28.0174 28.7062 28.2558 28.6075 28.4317 28.4317C28.6075 28.2558 28.7062 28.0174 28.7062 27.7687V25.5797H32.0625C32.3111 25.5797 32.5496 25.4809 32.7254 25.3051C32.9012 25.1293 33 24.8908 33 24.6422C33 24.3935 32.9012 24.1551 32.7254 23.9793C32.5496 23.8035 32.3111 23.7047 32.0625 23.7047H28.7062V18.9375H32.0625ZM26.8312 26.8312H9.16875V9.16875H26.8312V26.8312Z" fill="white"/>
</svg>
