<svg width="36" height="36" viewBox="0 0 36 36" fill="none" xmlns="http://www.w3.org/2000/svg">
<path d="M18.8303 24.7591C18.6171 24.9922 18.3159 25.125 18 25.125C17.6841 25.125 17.3829 24.9922 17.1698 24.7591L11.1697 18.1966C10.7505 17.7381 10.7823 17.0265 11.2409 16.6072C11.6995 16.188 12.411 16.2198 12.8303 16.6783L16.875 21.1023V4.5C16.875 3.87868 17.3787 3.375 18 3.375C18.6213 3.375 19.125 3.87868 19.125 4.5V21.1023L23.1698 16.6783C23.589 16.2198 24.3006 16.188 24.7592 16.6072C25.2177 17.0265 25.2495 17.7381 24.8303 18.1966L18.8303 24.7591Z" fill="white"/>
<path d="M5.625 22.5C5.625 21.8787 5.12133 21.375 4.5 21.375C3.87869 21.375 3.375 21.8787 3.375 22.5V22.5824C3.37497 24.6337 3.37494 26.2872 3.54978 27.5877C3.73131 28.9378 4.11965 30.0745 5.02253 30.9774C5.92541 31.8804 7.06221 32.2687 8.41238 32.4502C9.71283 32.625 11.3663 32.625 13.4177 32.625H22.5824C24.6338 32.625 26.2872 32.625 27.5877 32.4502C28.9378 32.2687 30.0745 31.8804 30.9775 30.9774C31.8804 30.0745 32.2687 28.9378 32.4502 27.5877C32.625 26.2872 32.625 24.6337 32.625 22.5824V22.5C32.625 21.8787 32.1213 21.375 31.5 21.375C30.8787 21.375 30.375 21.8787 30.375 22.5C30.375 24.6531 30.3726 26.1547 30.2204 27.2878C30.0723 28.3885 29.8017 28.9713 29.3865 29.3865C28.9713 29.8017 28.3886 30.0723 27.2879 30.2203C26.1548 30.3726 24.6531 30.375 22.5 30.375H13.5C11.3469 30.375 9.84521 30.3726 8.71218 30.2203C7.61153 30.0723 7.02866 29.8017 6.61352 29.3865C6.19838 28.9713 5.9277 28.3885 5.77973 27.2878C5.62739 26.1547 5.625 24.6531 5.625 22.5Z" fill="white"/>
</svg>
