<svg width="222" height="53" viewBox="0 0 222 53" fill="none" xmlns="http://www.w3.org/2000/svg">
<g clip-path="url(#clip0_22_223)">
<path d="M59.9792 25.011C59.9792 22.2677 59.4109 19.8383 58.2751 17.7219C57.1385 15.6056 55.5392 13.9711 53.4799 12.8194C51.4198 11.6677 49.0888 11.0918 46.486 11.0918C43.7838 11.0918 41.3942 11.685 39.319 12.8687C37.2428 14.0541 35.6276 15.747 34.4758 17.9492C33.3223 20.1504 32.7451 22.7075 32.7451 25.6197C32.7451 28.4981 33.3303 31.0379 34.4989 33.2391C35.6693 35.4403 37.2997 37.1423 39.3936 38.3433C41.4848 39.5462 43.8487 40.1476 46.486 40.1476C49.7485 40.1476 52.4996 39.2751 54.74 37.5311C56.9804 35.7871 58.4962 33.5612 59.2866 30.8508H51.8238C50.7369 33.1214 48.9076 34.2548 46.3368 34.2548C44.5582 34.2548 43.0575 33.679 41.8391 32.5273C40.6199 31.3755 39.9281 29.7839 39.763 27.7515H59.7812C59.9126 26.9402 59.9792 26.0267 59.9792 25.011ZM39.8145 22.9786C40.0782 21.0822 40.7931 19.6001 41.9634 18.5342C43.1321 17.4664 44.5742 16.9334 46.288 16.9334C48.1004 16.9334 49.6322 17.4847 50.8843 18.5853C52.1364 19.6859 52.7802 21.1506 52.813 22.9786H39.8145Z" fill="white"/>
<path d="M69.9636 15.9176V11.5489H63.0435V39.6903H69.9636V25.6707C69.9636 23.0634 70.5151 21.2345 71.6198 20.185C72.7235 19.1355 74.3628 18.6098 76.5375 18.6098H78.3659V11.1428C76.5206 11.1428 74.8814 11.5663 73.4482 12.4132C72.0149 13.2601 70.8534 14.4282 69.9636 15.9176Z" fill="white"/>
<path d="M81.0352 39.6913H87.9545V11.5491L81.0352 15.7626V39.6913Z" fill="white"/>
<path d="M126.706 11.5499H134.07L117.116 52.999H109.752L115.682 38.9794L106.317 15.5663C106.108 15.0443 105.354 15.1985 105.354 15.7625V17.3897H100.559V39.6894H93.54V17.3916H90.4258V11.5508H93.54V10.1272C93.54 6.67292 94.4955 4.13403 96.4065 2.50775C98.3183 0.883299 101.202 0.121267 105.057 0.221655V6.21661C103.377 6.18193 102.207 6.47032 101.548 7.07994C100.888 7.68865 100.56 8.79018 100.56 10.3818V11.5499H112.47L119.539 31.2076L126.706 11.5499Z" fill="white"/>
<path d="M152.032 5.39259V12.824C152.032 13.6572 151.38 14.3271 150.569 14.3271H144.384C143.974 14.3271 143.596 14.5653 143.422 14.954C142.387 17.2511 142.385 21.9419 142.385 21.9419C142.385 21.9419 142.385 26.6364 143.425 28.9334C143.595 29.3186 143.98 29.5577 144.387 29.5604H150.574C151.384 29.5604 152.033 30.2275 152.033 31.0607V38.4976C152.033 39.2542 151.494 39.8766 150.783 39.9797C150.442 39.9669 150.103 39.9459 149.769 39.9158C149.761 39.9158 149.754 39.914 149.745 39.9131C149.721 39.9113 149.699 39.9085 149.676 39.9058C149.573 39.8976 149.472 39.8875 149.371 39.8757C149.343 39.8729 149.316 39.8684 149.287 39.8656C149.186 39.8538 149.083 39.841 148.982 39.8273C148.94 39.8227 148.898 39.8173 148.858 39.81C148.732 39.7926 148.604 39.7744 148.48 39.7543C148.369 39.736 148.26 39.7169 148.15 39.6977C148.055 39.6804 147.961 39.663 147.866 39.6439C147.767 39.6256 147.667 39.6037 147.568 39.5827C147.435 39.5544 147.302 39.5243 147.168 39.4915C147.151 39.4887 147.134 39.4842 147.117 39.4796C146.999 39.4513 146.882 39.4212 146.766 39.3902C146.746 39.3847 146.723 39.3783 146.701 39.3728C146.57 39.3372 146.439 39.2998 146.309 39.2615C146.302 39.2587 146.296 39.2569 146.291 39.256C146.155 39.2159 146.021 39.1739 145.888 39.1292C145.787 39.0963 145.687 39.0634 145.587 39.0279C145.537 39.0105 145.487 38.9932 145.439 38.9767C145.317 38.9329 145.194 38.8873 145.074 38.8399C144.939 38.7887 144.806 38.7358 144.673 38.6801C144.671 38.6801 144.669 38.6783 144.668 38.6783C144.549 38.6281 144.431 38.577 144.313 38.5259C144.28 38.5113 144.249 38.4976 144.217 38.483C144.118 38.4392 144.019 38.3936 143.923 38.348C143.873 38.3233 143.821 38.2996 143.77 38.274C143.679 38.2302 143.587 38.1846 143.496 38.1371C143.368 38.0733 143.241 38.0048 143.113 37.9364C142.965 37.857 142.819 37.7739 142.673 37.69C140.031 36.154 137.942 34.0194 136.416 31.2843C134.887 28.5483 134.125 25.4445 134.125 21.9647C134.125 18.4904 134.887 15.3738 136.416 12.6241C137.942 9.87261 140.031 7.72796 142.673 6.19295C142.814 6.11173 142.953 6.03324 143.095 5.95658C143.211 5.89361 143.328 5.83156 143.446 5.77132C143.599 5.69284 143.755 5.61618 143.91 5.54226C143.995 5.5021 144.078 5.46286 144.162 5.42544C144.175 5.41997 144.187 5.41358 144.2 5.4081C144.257 5.38255 144.313 5.357 144.37 5.33236C144.741 5.16991 145.118 5.02024 145.499 4.88609C145.624 4.84228 145.75 4.79939 145.876 4.75741H145.878C146.01 4.7136 146.143 4.67162 146.278 4.63238C146.287 4.62964 146.297 4.62691 146.307 4.62417C146.441 4.58401 146.576 4.54568 146.71 4.51009C146.851 4.47176 146.992 4.43617 147.135 4.40149C147.276 4.3659 147.419 4.33487 147.563 4.30293C147.698 4.27281 147.834 4.24543 147.972 4.21897C147.996 4.2144 148.019 4.21075 148.044 4.20619C148.173 4.18155 148.301 4.15965 148.431 4.13775C148.578 4.1131 148.725 4.09211 148.872 4.07112C148.991 4.05561 149.108 4.0401 149.226 4.02549C149.236 4.02367 149.245 4.02276 149.255 4.02276C149.309 4.01546 149.364 4.00998 149.419 4.0045C149.535 3.99173 149.651 3.97986 149.768 3.96891C150.101 3.9388 150.436 3.91781 150.775 3.90503C151.486 4.0045 152.032 4.63056 152.032 5.39259Z" fill="white"/>
<path d="M167.731 28.5491C166.582 32.1639 164.568 34.973 161.693 36.9825C159.548 38.4829 157.122 39.4219 154.416 39.8025V33.2718C155.145 33.0592 155.829 32.759 156.47 32.3729C157.9 31.5123 159.007 30.2401 159.798 28.55H167.731V28.5491Z" fill="#6D44FA"/>
<path d="M191.553 15.5628C190.629 14.276 189.402 13.2091 187.87 12.3622C186.339 11.5153 184.551 11.0928 182.507 11.0928C180.168 11.0928 178.05 11.686 176.156 12.8696C174.26 14.0551 172.762 15.748 171.658 17.9501C170.553 20.1514 170.003 22.6738 170.003 25.5184C170.003 28.3968 170.553 30.9467 171.658 33.1634C172.762 35.382 174.261 37.1004 176.156 38.3188C178.05 39.5389 180.151 40.1485 182.458 40.1485C184.5 40.1485 186.305 39.7169 187.869 38.8535C189.433 37.9902 190.662 36.8969 191.552 35.5764V39.6913H198.521V11.55H191.552V15.5628H191.553ZM190.565 30.0651C189.905 31.3017 189.014 32.2499 187.895 32.9097C186.775 33.5695 185.571 33.8999 184.287 33.8999C183.033 33.8999 181.857 33.5622 180.753 32.8841C179.648 32.207 178.759 31.2341 178.084 29.9629C177.409 28.6934 177.071 27.2123 177.071 25.5184C177.071 23.8256 177.409 22.3617 178.084 21.1251C178.759 19.8895 179.641 18.9495 180.728 18.3052C181.815 17.6627 183.002 17.3405 184.287 17.3405C185.571 17.3405 186.775 17.6709 187.895 18.3307C189.014 18.9914 189.905 19.9396 190.565 21.1762C191.223 22.4119 191.553 23.894 191.553 25.6207C191.553 27.3473 191.223 28.8285 190.565 30.0651Z" fill="#6D44FA"/>
<path d="M210.236 2.10083H203.315V39.6914H210.236V2.10083Z" fill="#6D44FA"/>
<path d="M167.731 15.3335H159.798C159.008 13.6452 157.9 12.3794 156.47 11.5362C155.83 11.1574 155.146 10.8654 154.416 10.6555V4.0874C157.098 4.47253 159.515 5.41799 161.667 6.92563C164.561 8.95072 166.581 11.757 167.731 15.3335Z" fill="#6D44FA"/>
<path d="M222 2.10083H215.08V39.6914H222V2.10083Z" fill="#6D44FA"/>
<path d="M7.40237 11.0918H0L5.55622 24.2836H12.9586L7.40237 11.0918Z" fill="#6D44FA"/>
<path d="M16.0434 31.6074L13.8643 26.4329H6.46191L12.63 41.0776L18.7536 41.3149L38.6866 2.32715H31.0125L16.0434 31.6074Z" fill="white"/>
<path d="M87.9553 0H81.0352V7.11199H87.9553V0Z" fill="#6D44FA"/>
</g>
<defs>
<clipPath id="clip0_22_223">
<rect width="222" height="53" fill="white"/>
</clipPath>
</defs>
</svg>
