<svg width="861" height="314" viewBox="0 0 861 314" fill="none" xmlns="http://www.w3.org/2000/svg">
<path d="M691.055 308.826C605.019 328.999 514.993 277.883 454.014 237.014C443.298 229.833 432.393 222.329 421.85 215.068C358.64 171.558 293.282 126.571 220.032 116.761C135.478 105.436 49.884 145.615 1.97551 219.125L0.357922 217.871C23.8924 181.758 57.1416 152.9 96.5169 134.417C135.888 115.932 178.661 109.104 220.199 114.667C293.902 124.538 359.458 169.663 422.856 213.301C433.398 220.558 444.296 228.06 454.999 235.232C517.654 277.223 611.115 330.102 698.913 304.573C743.773 291.533 785.103 259.159 828.989 202.689C840.844 187.435 852.317 171.356 863.411 155.803C885.09 125.415 907.511 93.9889 933.816 67.2828C960.679 40.0122 1015.68 -4.88011 1082.21 0.889089C1121.89 4.32846 1159.47 25.5141 1192.62 44.2091L1256.02 79.9682L1255.17 81.83L1191.76 46.07C1158.78 27.4719 1121.4 6.39313 1082.13 2.99096C1016.33 -2.70928 961.829 41.8017 935.189 68.8441C908.988 95.4399 886.616 126.799 864.98 157.127C853.872 172.695 842.393 188.795 830.513 204.078C786.37 260.878 744.739 293.459 699.493 306.613C696.687 307.427 693.871 308.166 691.055 308.826Z" fill="#75E2FF"/>
</svg>
