<svg width="188" height="98" viewBox="0 0 188 98" fill="none" xmlns="http://www.w3.org/2000/svg">
<path d="M77 0.99707L77.6523 0.239138L77.3711 -0.00292969H77V0.99707ZM177.167 91.7983C177.167 94.7439 179.554 97.1317 182.5 97.1317C185.446 97.1317 187.833 94.7439 187.833 91.7983C187.833 88.8528 185.446 86.465 182.5 86.465C179.554 86.465 177.167 88.8528 177.167 91.7983ZM0.5 0.99707L0.5 1.99707H77V0.99707V-0.00292969H0.5L0.5 0.99707ZM77 0.99707L76.3477 1.755L181.848 92.5563L182.5 91.7983L183.152 91.0404L77.6523 0.239138L77 0.99707Z" fill="white"/>
</svg>
