<svg width="188" height="98" viewBox="0 0 188 98" fill="none" xmlns="http://www.w3.org/2000/svg">
<path d="M111.5 0.99707L110.848 0.239138L111.129 -0.00292969H111.5V0.99707ZM11.3333 91.7983C11.3333 94.7439 8.94553 97.1317 6 97.1317C3.05447 97.1317 0.666672 94.7439 0.666672 91.7983C0.666672 88.8528 3.05447 86.465 6 86.465C8.94553 86.465 11.3333 88.8528 11.3333 91.7983ZM188 0.99707L188 1.99707H111.5V0.99707V-0.00292969H188L188 0.99707ZM111.5 0.99707L112.152 1.755L6.65233 92.5563L6 91.7983L5.34767 91.0404L110.848 0.239138L111.5 0.99707Z" fill="white"/>
</svg>
