<svg width="36" height="36" viewBox="0 0 36 36" fill="none" xmlns="http://www.w3.org/2000/svg">
<g clip-path="url(#clip0_48_495)">
<path d="M16.0795 0.507285C18.1208 -0.0558283 20.255 -0.201842 22.3539 0.0785744C25.7646 0.558083 28.9263 2.13532 31.3617 4.57076C33.7971 7.00623 35.3744 10.1679 35.8539 13.5786C36.1518 15.6686 36.0241 17.7978 35.4789 19.8374C34.9337 21.8768 33.982 23.7852 32.681 25.4477C30.5149 28.1179 29.3063 31.4376 29.2494 34.8755C29.2493 35.1736 29.1311 35.4595 28.9203 35.6704C28.7093 35.8814 28.4228 36.0005 28.1244 36.0005H4.49941C4.20118 36.0003 3.91537 35.8813 3.70448 35.6704C3.4936 35.4595 3.37451 35.1737 3.37441 34.8755V26.4829L0.472062 24.559C0.243761 24.407 0.0786799 24.1767 0.00819525 23.9116C-0.0622505 23.6464 -0.0326049 23.364 0.0902265 23.1186L4.59023 14.186C4.79244 12.0782 5.41741 10.033 6.42812 8.17232C7.43892 6.31155 8.81478 4.67385 10.473 3.35689C12.1313 2.03993 14.0381 1.07045 16.0795 0.507285ZM25.0521 3.11861C23.0818 2.36284 20.9614 2.0796 18.8617 2.29147C16.762 2.50335 14.741 3.20414 12.9613 4.33834C11.1817 5.47252 9.69241 7.00799 8.61366 8.82174C7.5349 10.6355 6.89642 12.6774 6.74941 14.7827C6.7395 15.066 6.62306 15.3355 6.42323 15.5366L2.57558 23.2426L5.11855 24.9409C5.27317 25.0427 5.40036 25.1815 5.48866 25.3442C5.57698 25.5071 5.62345 25.6902 5.62441 25.8755V33.7505H26.9994C27.2941 30.1917 28.6551 26.8037 30.9037 24.0297H30.8588C32.1572 22.3664 33.0475 20.4217 33.4584 18.352C33.8693 16.2821 33.7896 14.1442 33.225 12.1108C32.6604 10.0774 31.6268 8.20471 30.2074 6.64303C28.7881 5.08142 27.0224 3.87441 25.0521 3.11861ZM20.2504 4.50045C21.7274 4.50053 23.1904 4.79072 24.5551 5.35592C25.9199 5.92128 27.1609 6.75078 28.2055 7.79537C29.2499 8.83993 30.0787 10.0801 30.6439 11.4448C31.2093 12.8096 31.5004 14.2731 31.5004 15.7504C31.5003 17.9752 30.8399 20.1506 29.6039 22.0005C28.3678 23.8502 26.6105 25.2926 24.5551 26.144C22.4996 26.9953 20.2371 27.2176 18.0551 26.7837C15.873 26.3495 13.8686 25.2778 12.2953 23.7046C10.722 22.1312 9.65028 20.127 9.2162 17.9448C8.78213 15.7625 9.00535 13.5004 9.85683 11.4448C10.7083 9.38925 12.1504 7.63206 14.0004 6.39596C15.8503 5.16003 18.0256 4.50045 20.2504 4.50045ZM21.4203 24.6704C23.0799 24.4526 24.6482 23.7773 25.9467 22.7153L21.4203 18.1889V24.6704ZM14.5023 22.6753C14.741 22.8733 14.9909 23.0595 15.2504 23.2329C16.3785 23.9866 17.6578 24.4712 18.9906 24.6596V18.187L14.5023 22.6753ZM21.4203 14.7514L27.6029 20.934C28.6656 19.4267 29.2503 17.6195 29.2504 15.7504C29.2504 13.9705 28.7227 12.2295 27.7338 10.7495C26.745 9.26964 25.339 8.11623 23.6947 7.43502C22.9628 7.13186 22.1974 6.92856 21.4203 6.82662V14.7514ZM18.4945 6.9233C16.7488 7.27055 15.1448 8.12764 13.8861 9.38619C12.6276 10.6448 11.7705 12.2489 11.4232 13.9946C11.0761 15.7402 11.2539 17.5495 11.935 19.1938C12.1824 19.7912 12.4926 20.3574 12.8578 20.8833L18.9906 14.7514V6.83932C18.8249 6.86274 18.6593 6.89054 18.4945 6.9233Z" fill="white"/>
</g>
<defs>
<clipPath id="clip0_48_495">
<rect width="36" height="36" fill="white"/>
</clipPath>
</defs>
</svg>
