<svg width="205" height="60" viewBox="0 0 205 60" fill="none" xmlns="http://www.w3.org/2000/svg">
<path d="M196.668 1.18506C200.17 1.18506 203.02 3.97098 203.02 7.39469V51.7624C203.02 55.1861 200.17 57.972 196.668 57.972H7.56415C4.06195 57.972 1.21216 55.1861 1.21216 51.7624V7.39469C1.21216 3.97098 4.06195 1.18506 7.56415 1.18506H196.668ZM196.668 7.34329e-05H7.56415C3.40576 7.34329e-05 0 3.3295 0 7.39469V51.7624C0 55.8276 3.40576 59.157 7.56415 59.157H196.668C200.826 59.157 204.232 55.8276 204.232 51.7624V7.39469C204.232 3.3295 200.826 7.34329e-05 196.668 7.34329e-05Z" fill="white"/>
<path d="M14.6518 11.1493C14.2074 11.6041 13.9502 12.3121 13.9502 13.229V45.9354C13.9502 46.8524 14.2074 47.5604 14.6518 48.0152L14.7615 48.115L33.5092 29.7948V29.3622L14.7615 11.0421L14.6518 11.1493Z" fill="white"/>
<path d="M42.0206 35.9048L35.7783 29.795V29.3624L42.0282 23.2526L42.1681 23.3321L49.5697 27.449C51.682 28.6174 51.682 30.54 49.5697 31.7157L42.1681 35.8253L42.0206 35.9048Z" fill="white"/>
<path d="M41.0334 36.9629L34.6436 30.7163L15.7861 49.1529C16.4877 49.8739 17.6318 49.9607 18.9328 49.2398L41.0334 36.9629Z" fill="white"/>
<path d="M41.0334 22.1943L18.9328 9.91742C17.6318 9.20384 16.4877 9.29072 15.7861 10.0117L34.6436 28.4409L41.0334 22.1943Z" fill="white"/>
<path d="M71.7349 15.1497C71.7349 16.3846 71.3567 17.3737 70.6116 18.1113C69.755 18.9857 68.6393 19.4257 67.272 19.4257C65.9653 19.4257 64.8496 18.9783 63.9344 18.0965C63.0172 17.2017 62.5596 16.1036 62.5596 14.7893C62.5596 13.4749 63.0172 12.3768 63.9344 11.4894C64.8496 10.6002 65.9653 10.1528 67.272 10.1528C67.9226 10.1528 68.5428 10.2841 69.1347 10.5281C69.7247 10.774 70.205 11.1067 70.553 11.5171L69.7625 12.2973C69.1555 11.5966 68.3291 11.2509 67.272 11.2509C66.319 11.2509 65.4926 11.5763 64.791 12.2326C64.097 12.8907 63.749 13.7429 63.749 14.7893C63.749 15.8356 64.097 16.6952 64.791 17.3533C65.4926 18.0022 66.319 18.335 67.272 18.335C68.2837 18.335 69.1347 18.0022 69.806 17.3459C70.2485 16.9115 70.5 16.3125 70.5662 15.5472H67.272V14.4787H71.6668C71.7198 14.7098 71.7349 14.9335 71.7349 15.1497Z" fill="white" stroke="white" stroke-width="0.22536" stroke-miterlimit="10"/>
<path d="M78.707 11.4451H74.5788V14.255H78.3004V15.3235H74.5788V18.1335H78.707V19.2223H73.4102V10.3562H78.707V11.4451Z" fill="white" stroke="white" stroke-width="0.22536" stroke-miterlimit="10"/>
<path d="M83.6275 19.2223H82.4589V11.4451H79.9268V10.3562H86.1615V11.4451H83.6275V19.2223Z" fill="white" stroke="white" stroke-width="0.22536" stroke-miterlimit="10"/>
<path d="M90.6733 19.2223V10.3562H91.8401V19.2223H90.6733Z" fill="white" stroke="white" stroke-width="0.22536" stroke-miterlimit="10"/>
<path d="M97.0123 19.2223H95.8531V11.4451H93.3115V10.3562H99.5538V11.4451H97.0123V19.2223Z" fill="white" stroke="white" stroke-width="0.22536" stroke-miterlimit="10"/>
<path d="M111.358 18.0817C110.463 18.9783 109.355 19.4257 108.033 19.4257C106.704 19.4257 105.596 18.9783 104.701 18.0817C103.809 17.187 103.364 16.0889 103.364 14.7893C103.364 13.4897 103.809 12.3916 104.701 11.4968C105.596 10.6002 106.704 10.1528 108.033 10.1528C109.348 10.1528 110.456 10.6002 111.35 11.5042C112.25 12.4063 112.695 13.497 112.695 14.7893C112.695 16.0889 112.25 17.187 111.358 18.0817ZM105.565 17.3385C106.239 18.0022 107.057 18.335 108.033 18.335C109.001 18.335 109.828 18.0022 110.493 17.3385C111.165 16.6749 111.505 15.8227 111.505 14.7893C111.505 13.7559 111.165 12.9036 110.493 12.24C109.828 11.5763 109.001 11.2435 108.033 11.2435C107.057 11.2435 106.239 11.5763 105.565 12.24C104.894 12.9036 104.554 13.7559 104.554 14.7893C104.554 15.8227 104.894 16.6749 105.565 17.3385Z" fill="white" stroke="white" stroke-width="0.22536" stroke-miterlimit="10"/>
<path d="M114.334 19.2223V10.3562H115.752L120.162 17.2517H120.213L120.162 15.5472V10.3562H121.329V19.2223H120.111L115.493 11.9867H115.442L115.493 13.6986V19.2223H114.334Z" fill="white" stroke="white" stroke-width="0.22536" stroke-miterlimit="10"/>
<path d="M103.077 32.1705C99.5233 32.1705 96.6206 34.814 96.6206 38.4614C96.6206 42.0793 99.5233 44.7506 103.077 44.7506C106.637 44.7506 109.54 42.0793 109.54 38.4614C109.54 34.814 106.637 32.1705 103.077 32.1705ZM103.077 42.2734C101.127 42.2734 99.4496 40.7002 99.4496 38.4614C99.4496 36.1931 101.127 34.6477 103.077 34.6477C105.026 34.6477 106.711 36.1931 106.711 38.4614C106.711 40.7002 105.026 42.2734 103.077 42.2734ZM88.9902 32.1705C85.4294 32.1705 82.5342 34.814 82.5342 38.4614C82.5342 42.0793 85.4294 44.7506 88.9902 44.7506C92.5492 44.7506 95.4462 42.0793 95.4462 38.4614C95.4462 34.814 92.5492 32.1705 88.9902 32.1705ZM88.9902 42.2734C87.0387 42.2734 85.3557 40.7002 85.3557 38.4614C85.3557 36.1931 87.0387 34.6477 88.9902 34.6477C90.9399 34.6477 92.6172 36.1931 92.6172 38.4614C92.6172 40.7002 90.9399 42.2734 88.9902 42.2734ZM72.2281 34.0986V36.7718H78.7578C78.5668 38.2655 78.0562 39.3636 77.2734 40.1289C76.3203 41.0533 74.8358 42.0793 72.2281 42.0793C68.2096 42.0793 65.0629 38.9088 65.0629 34.9804C65.0629 31.052 68.2096 27.8816 72.2281 27.8816C74.4009 27.8816 75.9818 28.7116 77.1485 29.7876L79.0755 27.9038C77.4435 26.3805 75.2726 25.2103 72.2281 25.2103C66.7176 25.2103 62.0864 29.5935 62.0864 34.9804C62.0864 40.3674 66.7176 44.7506 72.2281 44.7506C75.2064 44.7506 77.4435 43.7967 79.2022 42.0072C81.0044 40.2454 81.566 37.7682 81.566 35.768C81.566 35.1468 81.5131 34.5756 81.4185 34.0986H72.2281ZM140.771 36.171C140.239 34.7641 138.6 32.1705 135.26 32.1705C131.951 32.1705 129.196 34.7198 129.196 38.4614C129.196 41.985 131.922 44.7506 135.578 44.7506C138.534 44.7506 140.239 42.9888 140.941 41.9628L138.747 40.5338C138.015 41.5801 137.019 42.2734 135.578 42.2734C134.146 42.2734 133.119 41.6319 132.461 40.3674L141.068 36.8864L140.771 36.171ZM131.996 38.2655C131.922 35.84 133.923 34.5978 135.357 34.5978C136.48 34.5978 137.433 35.1468 137.751 35.9325L131.996 38.2655ZM125.001 44.3679H127.83V25.8814H125.001V44.3679ZM120.368 33.5718H120.274C119.638 32.836 118.426 32.1705 116.891 32.1705C113.668 32.1705 110.722 34.9361 110.722 38.4818C110.722 42.0072 113.668 44.7506 116.891 44.7506C118.426 44.7506 119.638 44.0795 120.274 43.3215H120.368V44.2237C120.368 46.6288 119.054 47.921 116.934 47.921C115.206 47.921 114.133 46.7009 113.691 45.6749L111.231 46.6787C111.94 48.3462 113.818 50.3982 116.934 50.3982C120.251 50.3982 123.05 48.4904 123.05 43.8484V32.5531H120.368V33.5718ZM117.133 42.2734C115.183 42.2734 113.551 40.678 113.551 38.4818C113.551 36.2652 115.183 34.6477 117.133 34.6477C119.054 34.6477 120.569 36.2652 120.569 38.4818C120.569 40.678 119.054 42.2734 117.133 42.2734ZM154.015 25.8814H147.249V44.3679H150.071V37.3633H154.015C157.149 37.3633 160.222 35.1468 160.222 31.6214C160.222 28.0979 157.141 25.8814 154.015 25.8814ZM154.089 34.7919H150.071V28.4528H154.089C156.196 28.4528 157.399 30.1628 157.399 31.6214C157.399 33.0523 156.196 34.7919 154.089 34.7919ZM171.53 32.1353C169.492 32.1353 167.372 33.0153 166.5 34.9656L169.004 35.9916C169.543 34.9656 170.534 34.6329 171.581 34.6329C173.045 34.6329 174.529 35.4925 174.552 37.0102V37.2044C174.042 36.916 172.949 36.4889 171.604 36.4889C168.907 36.4889 166.16 37.9401 166.16 40.6484C166.16 43.1256 168.368 44.721 170.851 44.721C172.75 44.721 173.798 43.8835 174.456 42.9093H174.552V44.3383H177.277V37.2469C177.277 33.9692 174.773 32.1353 171.53 32.1353ZM171.19 42.266C170.267 42.266 168.981 41.8186 168.981 40.7002C168.981 39.2693 170.585 38.7203 171.973 38.7203C173.215 38.7203 173.798 38.9883 174.552 39.3414C174.331 41.0533 172.824 42.266 171.19 42.266ZM187.205 32.5402L183.962 40.5541H183.866L180.513 32.5402H177.47L182.508 43.7393L179.633 49.9712H182.581L190.344 32.5402H187.205ZM161.773 44.3679H164.601V25.8814H161.773V44.3679Z" fill="white"/>
</svg>
