<svg width="766" height="158" viewBox="0 0 766 158" fill="none" xmlns="http://www.w3.org/2000/svg">
<path d="M1051.27 121.621C1017.37 129.57 978.259 122.406 934.948 100.303C913.747 89.4811 893.289 76.1797 873.504 63.3142C858.193 53.3579 842.361 43.0666 826.297 33.9977C781.501 8.70679 742.909 -1.36709 708.314 3.19947C661.767 9.33325 624.239 41.7414 587.962 73.0747C556.932 99.8766 524.843 127.591 486.663 139.804C428.386 158.467 365.4 138.8 311.472 117.119C302.716 113.597 293.801 109.892 285.181 106.307C238.131 86.7288 189.478 66.4953 139.422 65.0279C82.2789 63.3508 16.7591 94.4172 2.08405 157.014L0.18423 156.428C15.1025 92.7973 81.5032 61.2236 139.403 62.9188C189.802 64.3954 238.619 84.6999 285.829 104.334C294.446 107.917 303.353 111.623 312.097 115.136C365.715 136.695 428.286 156.244 486.043 137.773C523.868 125.671 555.811 98.0844 586.701 71.4052C623.18 39.8954 660.897 7.32577 708.005 1.09955C743.008 -3.51979 781.985 6.62811 827.154 32.1323C843.272 41.2315 859.131 51.5439 874.467 61.5139C894.208 74.3504 914.62 87.6199 935.731 98.3966C980.31 121.152 1020.36 127.919 1054.7 118.564C1090.58 108.772 1127.32 73.1456 1124.71 26.4001L1126.67 26.3518C1129.34 74.1893 1091.86 110.621 1055.24 120.609C1053.93 120.971 1052.6 121.309 1051.27 121.621Z" fill="#6D44FA"/>
</svg>
