<svg width="788" height="363" viewBox="0 0 788 363" fill="none" xmlns="http://www.w3.org/2000/svg">
<path d="M488.78 359.292C469.469 363.819 450.164 364.258 431.51 360.282C381.324 349.59 340.847 309.319 307.875 271.332C302.875 265.573 297.907 259.74 292.932 253.893C264.084 220.011 234.253 184.972 196.498 163.539C133.833 127.97 53.7957 136.739 1.85954 184.875L0.551877 183.255C53.0678 134.585 133.999 125.715 197.362 161.684C235.436 183.296 265.387 218.479 294.355 252.505C299.328 258.348 304.292 264.178 309.284 269.931C342.036 307.657 382.204 347.649 431.826 358.223C490.117 370.641 555.091 339.316 605.617 274.425C628.036 245.629 646.717 212.963 664.783 181.367C681.149 152.743 698.071 123.142 717.764 96.431C741.396 64.3698 805.439 -9.03502 889.498 1.74549C918.752 5.49502 946.404 19.3019 973.144 32.6545L976.581 34.3687C1005.59 48.8337 1034.09 61.9472 1063.7 63.5264C1097.23 65.3159 1127.13 49.8872 1139.86 24.2105L1141.59 25.2573C1128.52 51.6146 1097.95 67.465 1063.67 65.6348C1033.7 64.0331 1005.01 50.8336 975.814 36.2795L972.375 34.5616C945.778 21.281 918.277 7.54828 889.338 3.83821C806.25 -6.81838 742.756 65.9848 719.317 97.7782C699.692 124.395 682.801 153.942 666.462 182.516C648.364 214.171 629.648 246.904 607.136 275.812C572.275 320.578 530.545 349.497 488.78 359.292Z" fill="#6D44FA"/>
</svg>
