<svg width="117" height="100" viewBox="0 0 117 100" fill="none" xmlns="http://www.w3.org/2000/svg">
<path d="M46.7888 33.2045C44.0212 32.1042 41.4988 32.8197 40.5428 33.1785C40.1025 33.3436 39.8559 33.8126 39.9694 34.269C40.2516 35.4031 41.0333 37.5401 43.0985 39.1089C44.8231 40.419 46.7062 40.7762 48.2474 40.7762C49.9039 40.7762 51.1657 40.3635 51.4113 40.2771C51.8689 40.1163 52.1247 39.6297 51.9978 39.1616C51.8009 38.4341 50.624 34.7295 46.7888 33.2045ZM44.2184 37.6341C43.0245 36.7271 42.377 35.5663 42.0305 34.6602C43.0115 34.4299 44.5097 34.2913 46.1043 34.9253C48.3039 35.7998 49.4071 37.6526 49.893 38.7688C48.6175 39.0234 46.262 39.1864 44.2184 37.6341Z" fill="white"/>
<path d="M73.808 29.7192C75.6462 29.1704 77.7439 30.2824 77.774 30.2986C77.9145 30.375 78.0661 30.4114 78.2157 30.4114C78.5432 30.4114 78.8603 30.2373 79.0286 29.9296C79.2742 29.481 79.1096 28.9183 78.661 28.6729C78.5481 28.6111 75.8701 27.1704 73.2782 27.9447C72.7881 28.091 72.5096 28.6067 72.6559 29.097C72.802 29.5866 73.3177 29.8648 73.808 29.7192Z" fill="white"/>
<path d="M83.9004 41.6123C83.6263 41.5193 83.3414 41.4649 83.0552 41.4508C82.587 41.4269 82.1349 41.342 81.712 41.1984C81.289 41.0549 80.8795 40.8475 80.4969 40.5839C80.2583 40.4181 79.9974 40.2866 79.7217 40.1929C78.399 39.7436 76.9251 40.2373 76.1374 41.3929C75.1645 42.819 75.5284 44.7765 76.9485 45.7561C77.8129 46.3526 78.7418 46.8218 79.7096 47.1503C80.6763 47.4785 81.6976 47.6718 82.746 47.7246C82.799 47.7271 82.852 47.7285 82.905 47.7285C83.6809 47.7285 84.4194 47.444 84.9997 46.9184C85.621 46.3554 85.9856 45.5841 86.0261 44.7491C86.0976 43.3515 85.2233 42.0614 83.9004 41.6123ZM83.7564 45.5459C83.5034 45.7751 83.1754 45.8924 82.839 45.8751C81.9622 45.8308 81.1099 45.67 80.3055 45.3968C79.4997 45.1232 78.724 44.7313 78.0004 44.2318C77.4164 43.8288 77.2671 43.0234 77.6675 42.4362C77.9094 42.0813 78.3094 41.8795 78.7219 41.8795C78.8569 41.8795 78.9934 41.9012 79.1261 41.9461C79.2381 41.9843 79.3441 42.0378 79.4434 42.1065C79.9689 42.4688 80.5316 42.7531 81.1166 42.9517C81.7015 43.1503 82.3221 43.2674 82.9626 43.3001C83.0784 43.3059 83.1937 43.3278 83.305 43.3656C83.8478 43.5498 84.2064 44.0799 84.177 44.6568C84.1601 44.9998 84.0108 45.3156 83.7564 45.5459Z" fill="white"/>
<path d="M93.0411 43.4725C92.6812 43.5007 92.2946 43.4398 91.9309 43.3366C91.9312 43.3206 91.9298 43.3049 91.9298 43.2891C92.1955 43.2106 92.4501 43.0905 92.6925 42.9271C93.1166 42.6412 93.2282 42.0657 92.9423 41.6417C92.6564 41.2176 92.0809 41.106 91.6569 41.3919C91.4282 41.5461 91.1927 41.569 90.9594 41.531C90.8203 41.4424 90.6703 41.3669 90.5071 41.3116C89.4115 40.9396 88.2235 41.5319 87.8539 42.6347C87.4842 43.7375 88.0726 44.9331 89.1684 45.3051C89.8372 45.5322 90.5393 45.3986 91.0696 45.0104C91.6282 45.2044 92.2425 45.3317 92.8534 45.3317C92.9654 45.3317 93.0775 45.3273 93.1888 45.3185C93.6985 45.2778 94.0788 44.8315 94.0379 44.3218C93.9969 43.812 93.5492 43.4301 93.0411 43.4725Z" fill="white"/>
<path d="M74.6478 35.9267C74.4858 35.8716 74.3219 35.8401 74.1589 35.826C73.9504 35.7132 73.7768 35.5503 73.6872 35.2868C73.5226 34.8026 72.9962 34.5435 72.5126 34.7081C72.0284 34.8727 71.7694 35.3986 71.9339 35.8827C72.0282 36.1602 72.1619 36.4079 72.3263 36.632C72.3187 36.6419 72.3103 36.6512 72.3027 36.6614C71.9381 36.5213 71.59 36.338 71.3469 36.1121C70.9721 35.7639 70.3865 35.7857 70.0383 36.16C69.6902 36.5345 69.7117 37.1204 70.0863 37.4685C70.5904 37.9368 71.2768 38.2817 71.9677 38.5077C72.152 39.1482 72.6337 39.6908 73.3089 39.9202C74.4045 40.2922 75.5925 39.6998 75.9622 38.597C76.3321 37.4942 75.7434 36.2989 74.6478 35.9267Z" fill="white"/>
<path d="M111.047 6.51391C109.144 4.76461 105.197 1.92132 100.149 2.53706C96.5305 2.9778 93.9245 5.04771 92.5238 6.46993C89.3985 5.92155 86.6664 6.15905 84.9013 6.46345C83.0911 5.2653 81.0789 4.56808 79.058 4.44238C75.0927 4.19377 72.2545 6.13961 70.1816 7.55882L70.1603 7.5734C69.1532 8.26299 68.2573 9.00442 67.4562 9.77294C62.1863 4.85327 54.9483 1.72086 46.4536 0.698404C46.1469 0.661135 45.8407 0.780348 45.6393 1.01577C45.4379 1.25118 45.3678 1.57132 45.4518 1.86947L46.0696 4.05651C44.7275 3.79447 43.4002 3.44401 42.108 3.01044C39.9437 2.28405 37.8513 1.316 35.8886 0.132895C35.6187 -0.0298366 35.2847 -0.043957 35.0018 0.0951634C34.7192 0.234284 34.5266 0.507663 34.4907 0.820858C34.2256 3.13799 34.2636 5.47641 34.6027 7.77109C34.7143 8.52525 34.8587 9.27664 35.0356 10.0213L33.5791 8.96738C33.3203 8.78012 32.9833 8.73961 32.6877 8.85975C32.3918 8.97988 32.1789 9.244 32.124 9.55859C31.905 10.8155 31.7307 12.0822 31.5967 13.3526H14.8328C10.2768 13.3526 6.57031 17.0801 6.57031 21.6618V89.8528H5.20666C2.42379 89.8528 0.159668 92.1289 0.159668 94.9264C0.159668 97.7238 2.42379 100 5.20689 100H106.865C109.648 100 111.913 97.7241 111.913 94.9266C111.913 92.1292 109.649 89.853 106.865 89.853H105.502V66.8771C106.058 66.9484 106.589 66.9782 107.087 66.9782C108.546 66.9782 109.719 66.7266 110.384 66.5412C110.642 66.4692 110.857 66.2887 110.972 66.0463C111.087 65.8039 111.091 65.5236 110.984 65.278C110.45 64.0593 110.025 62.7877 109.721 61.4986C108.262 55.3083 110.095 50.6431 112.217 45.2412C113.28 42.5354 114.38 39.7375 115.224 36.4442C115.778 34.2827 120.368 15.0813 111.047 6.51391ZM71.2062 9.10141L71.2277 9.08683C73.1819 7.74863 75.6159 6.08313 78.9427 6.29053C80.7432 6.40257 82.5471 7.06276 84.1594 8.19933C84.365 8.34424 84.6208 8.39887 84.8675 8.35188C87.211 7.90188 91.8705 7.47803 96.7522 9.69539C102.647 12.3729 105.319 17.2544 106.197 18.8584C109.078 24.1213 109.487 30.4921 107.413 37.794C106.23 41.9572 104.55 45.2602 103.662 46.8468C103.448 46.6732 103.227 46.5195 103.01 46.3979C98.4117 42.4428 92.2647 35.6597 88.9295 25.7151C87.5795 21.6896 86.7983 17.4653 86.6073 13.16C86.5909 12.7887 86.3539 12.463 86.0052 12.3331C85.6569 12.2033 85.2643 12.2947 85.0092 12.5651C81.696 16.0732 78.1511 19.4331 74.4731 22.5519C70.3249 26.069 65.9131 29.3567 61.3576 32.3306C61.1393 32.3139 60.9279 32.306 60.7277 32.3165C60.4907 32.3292 60.2578 32.3597 60.0284 32.4033C60.2471 28.009 61.2453 23.8079 63.0073 19.8986C64.2721 17.0945 66.3877 12.4005 71.2062 9.10141ZM97.2388 61.9132V89.8528H82.0717C80.7286 86.325 78.9451 82.9965 76.7529 79.9553C75.7515 78.566 74.6525 77.2292 73.4883 75.9664L76.527 66.9026C77.3682 67.016 78.2101 67.0722 79.0469 67.0722C85.361 67.0722 91.3643 64.0729 94.2675 61.587C94.8339 61.1021 95.418 60.5104 96.0131 59.8255C96.3043 60.4454 96.7041 61.1681 97.2388 61.9132ZM49.5726 89.8528L55.4374 86.6333C56.2224 86.2026 56.9008 85.5894 57.3997 84.8604C58.0386 83.9269 58.739 83.0218 59.4814 82.1702C59.8566 81.7401 60.2495 81.3155 60.6492 80.9083C61.4002 80.1435 62.3939 79.7222 63.4469 79.7222H65.3668L64.7606 81.531C64.3106 81.4412 63.8527 81.6935 63.7027 82.1405C63.54 82.6252 63.8013 83.1502 64.2863 83.3127L70.1856 85.2917C70.6733 85.4553 70.9374 85.9901 70.774 86.4833C70.6946 86.7227 70.5279 86.916 70.3046 87.0278C70.0844 87.1377 69.8346 87.1556 69.6015 87.0771L63.7022 85.0982C63.218 84.9354 62.6927 85.1968 62.53 85.6817C62.3673 86.1664 62.6286 86.6914 63.1136 86.8539L69.0129 88.8329C69.4444 88.9775 69.6992 89.4123 69.64 89.8523L49.5726 89.8528ZM39.9541 89.8528V84.3269C39.9541 83.8155 39.5395 83.4009 39.0282 83.4009C38.5168 83.4009 38.1022 83.8155 38.1022 84.3269V89.8528H29.5467C30.8002 86.7197 32.4233 83.7595 34.3849 81.038C35.7879 79.0917 37.3719 77.2616 39.0981 75.5859C40.3553 76.4875 41.9131 77.2699 43.6849 77.8525C43.7809 77.884 43.8784 77.8991 43.9742 77.8991C44.3634 77.8991 44.7256 77.6519 44.8536 77.2623C45.0134 76.7764 44.749 76.2533 44.2634 76.0935C39.9101 74.6618 37.6027 72.169 37.5733 70.4465C37.5536 69.2958 38.0995 68.3577 38.1022 68.353C38.4099 67.8445 38.8057 67.4815 39.1856 67.2227C40.3272 70.6232 43.9749 73.4688 48.6858 74.5046C48.7529 74.5192 48.8196 74.5264 48.8856 74.5264C49.3108 74.5264 49.6939 74.2315 49.7891 73.7991C49.8988 73.2998 49.583 72.8058 49.0835 72.6958C44.6365 71.7181 41.1972 68.8551 40.7196 65.7336C40.6495 65.2748 40.4752 63.6266 41.1814 61.6787C41.649 60.3887 42.3476 59.4114 42.9849 58.7197C43.4895 59.1535 44.0613 59.6035 44.6951 60.0458C44.1997 61.169 44.0212 62.3225 44.1893 63.4245C44.5437 65.7502 46.2902 67.1009 47.8312 68.2926C49.7886 69.8065 52.0703 70.8667 54.6129 71.444C54.6803 71.4593 54.749 71.4669 54.8178 71.4669C54.8865 71.4669 54.9552 71.4593 55.0226 71.444C57.5652 70.8667 59.8469 69.8065 61.8043 68.2926C63.3453 67.1009 65.0918 65.75 65.4462 63.4245C65.5944 62.4523 65.4728 61.4401 65.1032 60.444C66.2275 61.7218 67.512 62.909 68.9513 63.9151C69.0293 64.7637 68.9659 65.4046 68.9157 65.7336C68.4381 68.8551 64.9988 71.7181 60.5518 72.6958C60.0522 72.8058 59.7365 73.2995 59.8462 73.7991C59.9414 74.2317 60.3242 74.5264 60.7497 74.5264C60.8157 74.5264 60.8826 74.5192 60.9495 74.5046C64.0603 73.8206 66.708 72.3472 68.4768 70.4461L65.9877 77.8711H63.4469C61.8927 77.8711 60.43 78.4891 59.3279 79.6113C58.9027 80.0444 58.4846 80.4961 58.0856 80.9535C57.2958 81.8593 56.5508 82.822 55.8715 83.8148C55.5309 84.3123 55.0851 84.7144 54.5462 85.0104L45.7245 89.853L39.9541 89.8528ZM14.8333 89.8528V21.6563H31.3328C31.5766 27.4329 32.709 33.1574 34.7053 38.7213C32.0388 39.9107 30.831 43.425 32.0131 46.6616C32.9483 49.2213 35.0837 50.9056 37.374 50.9898C37.7566 52.0158 38.1698 52.9093 38.6085 53.6447C39.1314 54.5215 39.8039 55.4222 40.608 56.3222C40.8437 56.6063 41.1888 56.9993 41.6333 57.4535C40.8597 58.2912 40.009 59.4783 39.4402 61.0475C38.8064 62.7958 38.7539 64.3373 38.8141 65.2956C38.0881 65.6634 37.1749 66.3076 36.515 67.3988C36.431 67.5396 35.6932 68.8225 35.7217 70.4782C35.7444 71.8097 36.4506 73.1632 37.6735 74.3864C35.9215 76.1021 34.3124 77.9713 32.8823 79.9553C30.69 82.9968 28.9062 86.3255 27.5636 89.8528H14.8333ZM50.1867 30.7375C50.4782 30.9597 50.8733 30.9891 51.1944 30.8125C53.4587 29.5674 55.5948 28.075 57.543 26.3766C58.1657 25.834 58.7694 25.2674 59.355 24.6817C58.633 27.4109 58.2286 30.241 58.1469 33.1472C56.1256 34.409 54.7691 36.9546 54.8458 39.8088C54.8972 41.7294 55.5728 43.4546 56.6617 44.6996C56.4444 44.704 56.2272 44.7079 56.0106 44.7093C52.6252 44.7306 49.2182 44.394 45.8955 43.7086C45.5367 43.6347 45.1678 43.7792 44.955 44.0773C44.7421 44.3755 44.7249 44.7713 44.9115 45.0866C45.7323 46.4748 47.6009 49.0088 50.89 50.3822C51.7522 50.7421 53.4928 51.3257 55.7103 51.3257C55.8228 51.3257 55.9365 51.3241 56.0515 51.3211C57.5159 51.2813 58.7513 51 59.6809 50.694C60.3314 52.9984 61.668 55.9218 63.6703 58.657C60.914 60.5857 57.9381 61.56 54.793 61.5331C51.3821 61.5109 48.5476 60.3317 46.396 58.959C46.3821 58.95 46.3708 58.9387 46.3564 58.9301C46.3492 58.9259 46.3416 58.9241 46.3344 58.9202C44.1259 57.4989 42.6474 55.8813 42.0231 55.1269C42.0154 55.1176 42.0076 55.1086 41.9997 55.0998C41.2798 54.2954 40.6571 53.4641 40.199 52.6956C39.7414 51.9283 39.3087 50.9421 38.911 49.7836C38.9036 49.7581 38.8948 49.7336 38.8856 49.7093C37.965 47 37.2358 43.357 36.8335 39.3178C36.946 36.5609 37.6057 33.9165 38.7965 31.4574C38.8277 31.3926 38.8594 31.3283 38.8911 31.2646C40.183 28.6695 42.5027 26.581 45.4228 25.3843C46.1041 25.1049 46.7754 24.7808 47.4184 24.4202C48.4252 23.8553 49.3747 23.1968 50.2559 22.4526C50.3643 23.3241 50.4171 24.2028 50.4136 25.0797C50.4071 26.6616 50.2166 28.2449 49.8481 29.7852C49.7624 30.1421 49.8953 30.5153 50.1867 30.7375ZM95.6015 57.3917C95.5731 57.4239 95.5471 57.4577 95.5238 57.4928C94.6698 58.6037 93.8402 59.5148 93.0631 60.1803C89.9244 62.8681 82.858 66.2144 76.0559 64.9593C76.037 64.956 76.0182 64.9505 75.9992 64.9484C75.3071 64.8181 74.6177 64.6408 73.9356 64.409C73.2525 64.1771 72.596 63.8975 71.9659 63.5785C71.9488 63.5683 71.93 63.5607 71.9122 63.5514C71.3907 63.285 70.8893 62.9887 70.4045 62.6715C70.3511 62.6283 70.2941 62.5891 70.2321 62.5586C68.5022 61.3975 67.0117 59.9419 65.764 58.3806C65.7451 58.3486 65.7282 58.3158 65.7048 58.2854C65.6705 58.2412 65.6319 58.2026 65.5918 58.1662C63.2305 55.1394 61.7747 51.7551 61.2585 49.3766C61.0397 48.3681 60.9282 47.1301 60.9182 45.7167C60.9191 45.6917 60.9187 45.6671 60.9175 45.6421C60.9034 42.4188 61.4173 38.2894 62.4124 33.853C67.0173 30.8442 71.4772 27.5199 75.671 23.9639C78.8666 21.2544 81.9629 18.3653 84.8974 15.3558C85.2275 19.1021 85.9909 22.7757 87.1738 26.3035C90.536 36.329 96.6367 43.2567 101.357 47.4132C99.5201 51.4158 97.5018 54.897 95.6015 57.3917ZM69.177 83.0007L66.5198 82.1093L72.0365 65.6535C72.4613 65.8391 72.8946 66.0113 73.34 66.1625C73.7874 66.3144 74.2379 66.4442 74.6897 66.5558L69.177 83.0007ZM63.6154 63.1454C63.3726 64.7382 62.1208 65.7063 60.6712 66.8276C60.5796 66.8986 60.4837 66.9639 60.3904 67.0326L60.3893 62.4401C61.4013 62.0808 62.3911 61.6162 63.3573 61.0535C63.5856 61.6553 63.7326 62.3769 63.6154 63.1454ZM46.28 61.0482C47.1772 61.5579 48.1687 62.0248 49.246 62.4065L49.2448 67.0326C49.1516 66.9639 49.0557 66.8984 48.9641 66.8276C47.5145 65.7065 46.2629 64.7384 46.0198 63.1454C45.9022 62.3745 46.0506 61.6509 46.28 61.0482ZM51.0978 62.9482C52.2465 63.2151 53.4745 63.3771 54.7812 63.3857C54.818 63.3859 54.8541 63.3859 54.8911 63.3859C56.1314 63.3859 57.3476 63.2472 58.5377 62.9762L58.539 68.1958C57.3886 68.8032 56.1455 69.2713 54.8178 69.5898C53.49 69.2713 52.2469 68.8032 51.0965 68.1958L51.0978 62.9482ZM59.0777 46.4475C59.1066 47.3246 59.1761 48.1354 59.2863 48.8713C58.5365 49.1327 57.39 49.4327 56.0011 49.4704C53.9678 49.5255 52.3726 48.9949 51.6032 48.6736C49.9395 47.9792 48.6999 46.9287 47.8205 45.9412C50.5323 46.3704 53.2775 46.5803 56.0221 46.5614C57.0377 46.5551 58.0634 46.5155 59.0777 46.4475ZM59.0819 44.3329C57.7022 43.5028 56.7504 41.7558 56.6971 39.7597C56.6224 36.9674 58.2705 34.5755 60.4383 34.2102C59.6372 37.947 59.1789 41.406 59.0819 44.3329ZM36.7259 49.0239C35.4638 48.6697 34.3103 47.5516 33.7529 46.0259C32.9601 43.8556 33.5733 41.5516 35.109 40.6019C35.4752 43.7736 36.0303 46.644 36.7259 49.0239ZM71.2643 88.6104C71.864 88.2694 72.3124 87.728 72.5316 87.0662C72.9974 85.6607 72.2809 84.1431 70.93 83.5975L72.8131 77.9803C73.6735 78.9616 74.4914 79.9843 75.2506 81.038C77.212 83.759 78.8351 86.7192 80.0888 89.8528H71.4958C71.515 89.4206 71.4323 88.9968 71.2643 88.6104ZM102.843 48.6125C104.347 50.2283 104.22 53.1354 102.48 55.3111C101.448 56.6014 99.7731 57.3086 97.9735 57.2836C99.6117 54.9294 101.277 51.9736 102.843 48.6125ZM33.7127 11.3498L36.1384 13.1049C36.4664 13.3419 36.9099 13.3389 37.2342 13.0972C37.5585 12.8556 37.6886 12.4313 37.5553 12.0493C37.0397 10.5732 36.6629 9.04262 36.4347 7.50026C36.1881 5.83243 36.1127 4.13961 36.209 2.45049C37.9094 3.37572 39.69 4.15234 41.5187 4.766C43.3701 5.38729 45.2895 5.84701 47.224 6.13266C47.5342 6.17873 47.8474 6.06391 48.0546 5.82803C48.262 5.59215 48.3356 5.26738 48.2502 4.96507L47.6173 2.72502C55.109 3.85743 61.4798 6.741 66.1724 11.1146C63.639 13.9954 62.2576 17.0563 61.3191 19.1382C61.1652 19.4794 61.0189 19.8236 60.8761 20.169C59.5182 21.9128 57.9886 23.5317 56.3259 24.981C54.9837 26.1509 53.5476 27.2178 52.0393 28.1669C52.1849 27.147 52.2606 26.1174 52.265 25.088C52.2715 23.5211 52.1124 21.9486 51.7923 20.4139C51.7224 20.079 51.4735 19.81 51.1451 19.7141C50.8168 19.6188 50.462 19.7116 50.2231 19.9565C49.1261 21.081 47.8775 22.0398 46.5122 22.8056C45.9349 23.1292 45.3319 23.4206 44.7203 23.6713C41.3842 25.0387 38.7254 27.4426 37.233 30.4403C37.1983 30.5104 37.1634 30.581 37.1293 30.6519C36.4117 32.1338 35.8747 33.678 35.5127 35.2692C33.9062 29.9438 33.1073 24.4882 33.1347 19.0019C33.1474 16.4542 33.3416 13.8868 33.7127 11.3498ZM8.4224 21.6618C8.4224 18.1012 11.2981 15.2044 14.833 15.2044H31.4321C31.3404 16.4678 31.2893 17.7324 31.283 18.9921C31.2816 19.263 31.2858 19.5336 31.2884 19.8042H13.9073C13.396 19.8042 12.9814 20.2188 12.9814 20.7301V89.8528H8.4224V21.6618ZM110.061 94.9264C110.061 96.7028 108.627 98.1479 106.865 98.1479H5.20689C3.44485 98.1481 2.01152 96.703 2.01152 94.9264C2.01152 93.1498 3.44485 91.7046 5.20689 91.7046H28.1976C28.1985 91.7046 28.1995 91.7049 28.2002 91.7049C28.2011 91.7049 28.202 91.7046 28.2032 91.7046H45.9592C45.9603 91.7046 45.9615 91.7049 45.9627 91.7049C45.9638 91.7049 45.9652 91.7046 45.9664 91.7046H70.2453C70.2474 91.7046 70.2495 91.7051 70.2515 91.7051C70.2541 91.7051 70.2566 91.7046 70.2592 91.7046H81.4323C81.4332 91.7046 81.4342 91.7049 81.4353 91.7049C81.4363 91.7049 81.4372 91.7046 81.4379 91.7046H106.865C108.627 91.7046 110.061 93.15 110.061 94.9264ZM103.65 89.8528H99.0907V63.9715C99.7474 64.5533 100.51 65.1012 101.395 65.5713C102.158 65.9769 102.915 66.2755 103.65 66.4905V89.8528ZM113.43 35.984C112.614 39.1667 111.536 41.9104 110.494 44.5637C108.258 50.2546 106.327 55.1697 107.919 61.9234C108.163 62.9586 108.479 63.9833 108.861 64.9822C107.839 65.1519 106.389 65.2359 104.771 64.8676C104.766 64.8664 104.761 64.8653 104.755 64.8641C103.955 64.6806 103.114 64.3875 102.263 63.9357C99.7749 62.6144 98.4194 60.5695 97.73 59.1317C100.174 59.2278 102.493 58.2595 103.926 56.4676C105.927 53.9662 106.252 50.6708 104.933 48.3526C106.686 45.3873 114.708 30.5496 107.821 17.9692C106.87 16.2313 103.975 10.9422 97.518 8.00928C96.567 7.57734 95.6242 7.23683 94.7022 6.97178C95.996 5.87363 97.9187 4.6741 100.372 4.37549C104.682 3.85026 108.125 6.344 109.793 7.87734C118.469 15.8505 113.64 35.1655 113.43 35.984Z" fill="white"/>
</svg>
