<svg width="91" height="100" viewBox="0 0 91 100" fill="none" xmlns="http://www.w3.org/2000/svg">
<path fill-rule="evenodd" clip-rule="evenodd" d="M29.7148 81.325L24.294 76.9128L12.2325 91.9243C11.0416 93.4062 11.0046 94.9215 11.6001 96.0569C11.8307 96.4981 12.1519 96.8836 12.5336 97.1889C12.9175 97.4964 13.3596 97.7248 13.8331 97.8496C15.0397 98.1705 16.469 97.8073 17.6376 96.3543L29.7148 81.325ZM45.0637 46.5421H44.4716C44.4402 46.5421 44.4436 46.5399 44.4358 46.541C44.1794 46.5733 43.8851 46.8329 43.6254 47.2407C43.2985 47.7554 43.0803 48.4574 43.0803 49.2485H43.0848C43.0848 49.4479 43.0948 49.6329 43.115 49.7989L44.4178 60.0004C44.4413 60.1843 44.5074 60.3336 44.6003 60.4316C44.6417 60.4762 44.6865 60.5018 44.7257 60.5018H44.8085C44.8477 60.5018 44.8924 60.4762 44.935 60.4316C45.0267 60.3347 45.0939 60.1843 45.1163 60.0004L46.4191 49.7989C46.4404 49.6329 46.4494 49.4479 46.4494 49.2485C46.4494 48.454 46.2345 47.7521 45.9087 47.2407C45.6502 46.8329 45.3547 46.5733 45.0984 46.541C45.0928 46.541 45.0973 46.5421 45.0637 46.5421ZM44.4716 44.502H45.0637C45.1398 44.502 45.2383 44.5098 45.3558 44.5243C46.2277 44.6346 47.0571 45.2396 47.6403 46.1566C48.1574 46.9699 48.5022 48.0563 48.5022 49.2485C48.5022 49.4925 48.4842 49.7599 48.4473 50.054L47.1444 60.2556C47.065 60.8818 46.8008 61.4288 46.4247 61.8266C45.9983 62.2767 45.433 62.5441 44.8096 62.5441H44.7268C44.1022 62.5441 43.537 62.2779 43.1116 61.8266C42.7355 61.43 42.4725 60.8818 42.393 60.2556L41.0902 50.054C41.0521 49.7599 41.0342 49.4925 41.0342 49.2485H41.0387C41.0387 48.0507 41.3812 46.9666 41.8972 46.1566C42.4803 45.2396 43.3097 44.6346 44.1806 44.5254C44.297 44.5098 44.3943 44.502 44.4716 44.502ZM44.7682 65.9993C44.5723 65.9993 44.3955 66.0784 44.2679 66.2054C44.1403 66.3324 44.0608 66.5084 44.0608 66.7034C44.0608 66.8984 44.1391 67.0744 44.2679 67.2015C44.3955 67.3296 44.5723 67.4087 44.7682 67.4087C44.9641 67.4087 45.1409 67.3296 45.2685 67.2015C45.3961 67.0744 45.4756 66.8984 45.4756 66.7034C45.4756 66.5084 45.3972 66.3324 45.2685 66.2054C45.1398 66.0784 44.9629 65.9993 44.7682 65.9993ZM42.8172 64.7625C43.3165 64.2656 44.0059 63.9581 44.7671 63.9581C45.5282 63.9581 46.2177 64.2656 46.7169 64.7625C47.2161 65.2594 47.525 65.9458 47.525 66.7034C47.525 67.4611 47.2172 68.1474 46.7169 68.6444C46.2166 69.1413 45.5282 69.4488 44.7671 69.4488C44.0059 69.4488 43.3165 69.1413 42.8172 68.6444C42.318 68.1474 42.0091 67.4611 42.0091 66.7034C42.0091 65.9458 42.318 65.2594 42.8172 64.7625ZM65.7617 53.8233C65.8087 54.1297 65.8479 54.4384 65.8803 54.747C66.4523 60.1041 64.9771 65.6773 61.3237 70.2065C61.2946 70.2399 61.2644 70.2755 61.2386 70.3123C57.5573 74.8192 52.3928 77.4242 47.009 77.9924C41.6051 78.5629 35.9817 77.0821 31.4217 73.4131C26.8628 69.7452 24.2291 64.5853 23.656 59.2071C23.0829 53.8278 24.5705 48.2312 28.2575 43.6909C31.9411 39.1528 37.1245 36.5311 42.5285 35.9606C45.4689 35.6497 48.4753 35.9472 51.3384 36.8742C51.3743 36.8887 51.4101 36.8999 51.4481 36.9099C53.7864 37.6809 56.0272 38.872 58.0598 40.4965C58.0923 40.5266 58.1292 40.5555 58.1662 40.5823C62.3971 44.0073 64.9592 48.7226 65.7427 53.6986C65.746 53.7398 65.7527 53.7821 65.7617 53.8233ZM67.6231 52.5855H85.1401C86.0657 52.5855 86.9074 52.2078 87.5186 51.5994C88.1297 50.9911 88.5091 50.1532 88.5091 49.2318V24.4376C88.5091 23.5162 88.1297 22.6783 87.5186 22.0699C86.9074 21.4616 86.0657 21.0839 85.1401 21.0839H78.4075H62.8414H56.11C55.1843 21.0839 54.3415 21.4616 53.7304 22.0699C53.1192 22.6783 52.7398 23.5173 52.7398 24.4376V35.2007C55.0892 36.0531 57.339 37.2999 59.394 38.9522L59.3951 38.9533C63.8443 42.531 66.6213 47.4022 67.6231 52.5855ZM50.6904 34.5623C47.9425 33.8447 45.1006 33.6408 42.3124 33.935C36.3891 34.5612 30.7054 37.4369 26.6636 42.4151C24.0724 45.6084 22.4718 49.2797 21.8237 53.0579C16.3795 51.615 11.6337 48.4574 8.20415 44.2023C4.82612 40.0096 2.73079 34.7472 2.50805 29.0036H6.30247C6.86771 29.0036 7.32774 28.5468 7.32774 27.983C7.32774 27.4192 6.86771 26.9624 6.30247 26.9624H2.50805C2.76997 20.2037 5.62977 14.109 10.1215 9.63777C14.6132 5.16651 20.7358 2.32087 27.5254 2.05903V5.95314C27.5254 6.51692 27.9843 6.97374 28.5507 6.97374C29.1171 6.97374 29.576 6.51692 29.576 5.95314V2.05903C35.0258 2.2685 40.047 4.1448 44.1391 7.18766C48.3701 10.3364 51.6093 14.733 53.3028 19.8282C52.9323 20.0533 52.5898 20.3218 52.2843 20.6259C51.3026 21.6031 50.6926 22.9524 50.6926 24.4365V34.5623H50.6904ZM55.2179 19.1162C55.5089 19.0683 55.8056 19.0427 56.1111 19.0427H61.8173V13.3614C61.8173 10.1091 64.1331 8.06899 67.1082 7.19658C68.2018 6.87569 69.3882 6.71747 70.5769 6.7197C71.7667 6.72193 72.9554 6.88349 74.0512 7.20438C77.0688 8.08682 79.435 10.1436 79.435 13.3614V19.0427H85.1423C86.6332 19.0427 87.9887 19.6488 88.9703 20.6259C89.953 21.6031 90.5619 22.9524 90.5619 24.4365V49.2306C90.5619 50.7159 89.953 52.064 88.9703 53.0412C87.9887 54.0183 86.6332 54.6245 85.1423 54.6245H67.9242C68.5252 60.4918 66.8911 66.5864 62.8739 71.5346L62.8728 71.5368C58.8321 76.515 53.1472 79.3907 47.2239 80.0158C42.4479 80.5205 37.5151 79.5623 33.1633 77.0643L30.9964 79.7328L31.7922 80.3813L31.7899 80.3846C32.222 80.7356 32.2903 81.3684 31.9411 81.8041L19.2315 97.6212C17.4753 99.8072 15.2378 100.33 13.3115 99.8195C12.5571 99.6189 11.8542 99.2579 11.252 98.7755C10.6476 98.2919 10.1428 97.6858 9.78236 96.9983C8.84551 95.209 8.86118 92.8703 10.6397 90.6575L23.29 74.915C23.3102 74.8861 23.3303 74.8571 23.3538 74.8292C23.712 74.3936 24.3578 74.329 24.7955 74.6855L25.5566 75.305L27.6709 72.7011C24.1843 68.953 22.1405 64.2678 21.6234 59.4222C21.47 57.9871 21.4521 56.5375 21.5685 55.0935C15.5792 53.5693 10.3622 50.1331 6.61139 45.4792C2.74982 40.6848 0.438477 34.6013 0.438477 27.9841C0.438477 20.256 3.58594 13.26 8.67202 8.19601C13.7581 3.132 20.7873 0 28.5507 0C34.8546 0 40.6738 2.06572 45.3637 5.55537C49.9035 8.93249 53.3834 13.6489 55.2179 19.1162ZM63.8667 19.0427H77.3822V13.3614C77.3822 11.2121 75.6652 9.79822 73.4736 9.15756C72.5569 8.88904 71.5641 8.75422 70.5747 8.7531C69.583 8.75199 68.5924 8.88346 67.6835 9.14976C65.5378 9.77928 63.8667 11.182 63.8667 13.3614V19.0427ZM55.153 44.1889C58.6989 47.0424 60.7472 51.0568 61.1927 55.2406C61.6382 59.4244 60.4809 63.7798 57.6143 67.3118L57.6132 67.3129C54.7467 70.8427 50.7139 72.8827 46.5098 73.3262C42.3292 73.7674 37.9774 72.6287 34.4393 69.8065C34.4057 69.7753 34.3699 69.7474 34.333 69.7207C30.8173 66.8706 28.7858 62.8739 28.3414 58.7102C27.8982 54.5476 29.041 50.2156 31.8773 46.6936C31.9075 46.6613 31.9366 46.6257 31.9623 46.5878C34.8255 43.0892 38.8404 41.0658 43.0243 40.6246C47.2295 40.1812 51.6037 41.3344 55.153 44.1889ZM42.8094 38.6001C47.534 38.101 52.4477 39.3957 56.4346 42.6023C60.4227 45.8112 62.7273 50.3237 63.2276 55.0256C63.7257 59.7041 62.4419 64.5709 59.2563 68.5274C59.2272 68.5708 59.1925 68.612 59.1556 68.6499C55.9354 72.5819 51.4258 74.8538 46.727 75.3507C42.027 75.8476 37.1391 74.5674 33.1644 71.3975C33.1208 71.3686 33.0794 71.3351 33.0402 71.2984C29.0913 68.0939 26.808 63.6037 26.3088 58.9264C25.8084 54.2245 27.1079 49.3331 30.3281 45.3655L30.3293 45.3644C33.5517 41.3923 38.0849 39.0993 42.8094 38.6001ZM31.4295 75.9646L29.4148 78.4459L27.1393 76.593L29.1305 74.1384C29.4573 74.4326 29.7931 74.7189 30.139 74.9986C30.561 75.3384 30.9919 75.6593 31.4295 75.9646ZM69.5125 38.6514H69.5102C69.5102 38.2826 69.3076 37.9271 68.9562 37.7455C68.3551 37.438 67.8503 36.9701 67.5 36.3985C67.163 35.8492 66.9683 35.2007 66.9683 34.5032C66.9683 33.4982 67.3768 32.5879 68.0395 31.9294C68.701 31.271 69.6143 30.8632 70.625 30.8632C71.6335 30.8632 72.5491 31.271 73.2106 31.9294C73.8721 32.5879 74.2807 33.4982 74.2807 34.5032C74.2807 35.2007 74.087 35.8492 73.7501 36.3985C73.411 36.9511 72.9274 37.4068 72.3521 37.7155C71.9906 37.8726 71.7365 38.2324 71.7365 38.6514V41.6965C71.7365 41.9995 71.6111 42.2758 71.4085 42.4775C71.2071 42.6781 70.9284 42.8029 70.625 42.8029C70.3206 42.8029 70.0419 42.6781 69.8404 42.4775C69.6389 42.277 69.5125 41.9995 69.5125 41.6965V38.6514ZM67.463 41.6965C67.463 42.5633 67.8178 43.3499 68.3909 43.9204C68.964 44.4909 69.7542 44.8441 70.625 44.8441C71.4947 44.8441 72.2861 44.4909 72.858 43.9204C73.4311 43.351 73.7859 42.5633 73.7859 41.6965V39.2296C74.4765 38.7706 75.0619 38.1656 75.4951 37.4592C76.0245 36.5957 76.3301 35.584 76.3301 34.5043C76.3301 32.9356 75.6921 31.5161 74.659 30.4888C73.6259 29.4604 72.1999 28.8253 70.625 28.8253C69.0491 28.8253 67.622 29.4604 66.59 30.4888C65.558 31.5161 64.9189 32.9367 64.9189 34.5043C64.9189 35.584 65.2244 36.5957 65.755 37.4592C66.1881 38.1667 66.7724 38.7717 67.463 39.2296V41.6965ZM27.8176 9.13416L24.8682 12.0701C24.4686 12.4689 24.4686 13.1152 24.8682 13.5129C25.2678 13.9107 25.9181 13.9107 26.3177 13.5129L27.5232 12.313V27.983C27.5232 28.5456 27.9821 29.0036 28.5485 29.0036H40.0324L38.827 30.2036C38.4263 30.6024 38.4263 31.2487 38.827 31.6464C39.2266 32.0442 39.8769 32.0442 40.2764 31.6464L43.2325 28.705C43.6321 28.3061 43.6321 27.6599 43.2325 27.2621L40.2764 24.3206C40.0448 24.09 39.7302 23.993 39.428 24.0287C39.2086 24.0543 38.9949 24.1524 38.827 24.3206C38.4263 24.7195 38.4263 25.3657 38.827 25.7635L40.0324 26.9635H29.5737V12.313L30.7781 13.5129C31.0098 13.7425 31.3232 13.8394 31.6254 13.8037C31.8448 13.7781 32.0597 13.6812 32.2276 13.5129C32.6283 13.1141 32.6283 12.4678 32.2276 12.0701L29.2782 9.13416C29.2525 9.10853 29.2234 9.08291 29.1954 9.05951H29.1943L29.1742 9.04391C29.1618 9.035 29.1495 9.02497 29.1361 9.01717L29.1271 9.01048L29.1137 9.00157L29.1081 8.99823L29.0913 8.9882L29.0857 8.98486L29.0701 8.97594L29.0645 8.9726L29.0466 8.96257L29.0421 8.96034L29.0253 8.95143L29.0197 8.94809C28.8775 8.87455 28.7164 8.83221 28.5451 8.83221C28.3739 8.83221 28.2127 8.87455 28.0705 8.94809L28.0649 8.95143L28.0481 8.96034L28.0425 8.96257L28.0258 8.9726L28.019 8.97594L28.0034 8.98486L27.9877 8.996L27.981 8.99934L27.9676 9.00826L27.9586 9.01494C27.9452 9.02385 27.934 9.03277 27.9217 9.04168L27.9004 9.05728C27.8724 9.08179 27.8456 9.10742 27.8176 9.13416Z" fill="white"/>
</svg>
