<svg width="103" height="100" viewBox="0 0 103 100" fill="none" xmlns="http://www.w3.org/2000/svg">
<path fill-rule="evenodd" clip-rule="evenodd" d="M6.48623 20.7761C6.9974 20.7761 7.45786 20.5683 7.78734 20.2334C8.12107 19.8985 8.32808 19.4364 8.32808 18.9234C8.32808 18.4147 8.12107 17.9483 7.78734 17.6177C7.45361 17.2828 6.99313 17.075 6.48623 17.075C5.97506 17.075 5.5146 17.2828 5.18511 17.6177C4.85138 17.9526 4.64438 18.4147 4.64438 18.9234C4.64438 19.4364 4.85138 19.8985 5.18511 20.2292C5.51463 20.5683 5.97509 20.7761 6.48623 20.7761ZM50.7972 31.6585C50.1973 31.349 49.7918 30.7258 49.7918 30.0051C49.7918 28.9792 50.6198 28.1483 51.6421 28.1483C52.6644 28.1483 53.4924 28.9792 53.4924 30.0051C53.4924 30.7259 53.0826 31.3491 52.4869 31.6585V32.8753C52.4869 33.3416 52.1067 33.7232 51.642 33.7232C51.1773 33.7232 50.7971 33.3416 50.7971 32.8753L50.7972 31.6585ZM85.8011 66.8596C88.1963 66.8596 90.3678 67.8347 91.9393 69.4118C93.5108 70.9889 94.4825 73.168 94.4825 75.5761C94.4825 77.9798 93.5108 80.159 91.9393 81.7361C91.1409 82.5374 90.1861 83.186 89.1257 83.6269H89.5355C92.9996 83.6269 96.1511 85.0472 98.4323 87.3408C100.714 89.6301 102.133 92.7927 102.133 96.2692V99.0419L102.103 99.2199L102.053 99.3726L102.036 99.4149L101.998 99.4785C101.82 99.788 101.482 100 101.102 100H101.094L70.5088 99.9958H70.5003C70.1159 99.9958 69.7822 99.788 69.6048 99.4743L69.5667 99.4107L69.5498 99.3683L69.4991 99.2157L69.4696 99.0376V96.265C69.4696 92.7886 70.8848 89.6259 73.1702 87.3365C75.4515 85.0472 78.6029 83.6227 82.0671 83.6227H82.4768C81.4165 83.1818 80.4617 82.5332 79.6633 81.7319C78.0918 80.1548 77.1201 77.9757 77.1201 75.5718C77.1201 73.1637 78.0917 70.9847 79.6633 69.4076C81.2306 67.8347 83.4015 66.8596 85.8011 66.8596ZM100.067 97.9267V96.2691C100.067 93.365 98.8796 90.7238 96.9744 88.8076C95.0649 86.8913 92.4331 85.7 89.5393 85.7H82.0661C79.1723 85.7 76.5405 86.8913 74.631 88.8076C72.7216 90.7238 71.5387 93.365 71.5387 96.2691V97.9267H100.067ZM90.4771 70.8785C89.2816 69.6787 87.6256 68.9325 85.8007 68.9325C83.9715 68.9325 82.3196 69.6745 81.12 70.8785C79.9244 72.0783 79.1809 73.7402 79.1809 75.5716C79.1809 77.4073 79.9202 79.065 81.12 80.2647C82.3155 81.4646 83.9715 82.2107 85.7964 82.2107C87.6256 82.2107 89.2775 81.4688 90.4729 80.2647C91.6685 79.0649 92.412 77.4031 92.412 75.5716C92.4162 73.7359 91.6727 72.0782 90.4771 70.8785ZM51.4978 66.8595C53.893 66.8595 56.0687 67.8346 57.6402 69.4117C59.2117 70.9888 60.1834 73.1679 60.1834 75.576C60.1834 77.9797 59.2118 80.1589 57.6402 81.736C56.8418 82.5373 55.887 83.1859 54.8267 83.6268H55.2364C58.7005 83.6268 61.852 85.0471 64.1332 87.3407C66.4145 89.63 67.8339 92.7926 67.8339 96.2691V99.0418L67.8043 99.2198L67.7537 99.3724L67.7368 99.4148L67.6987 99.4784C67.5213 99.7879 67.1833 99.9999 66.8032 99.9999H66.7947L36.2054 99.9957H36.1969C35.8125 99.9957 35.4788 99.7879 35.3013 99.4742L35.2633 99.4106L35.2464 99.3682L35.1957 99.2156L35.1619 99.0121V96.2649C35.1619 92.7886 36.5771 89.6259 38.8626 87.3365C41.1439 85.0471 44.2953 83.6227 47.7594 83.6227H48.1692C47.1088 83.1818 46.1541 82.5331 45.3556 81.7318C43.7842 80.1548 42.8125 77.9757 42.8125 75.5718C42.8125 73.1637 43.7841 70.9846 45.3556 69.4075C46.9271 67.8347 49.1024 66.8595 51.4978 66.8595ZM65.7634 97.9266V96.269C65.7634 93.3649 64.5763 90.7237 62.6669 88.8075C60.7574 86.8912 58.1256 85.6999 55.2318 85.6999H47.7586C44.8648 85.6999 42.233 86.8912 40.3235 88.8075C38.4141 90.7237 37.227 93.3649 37.227 96.269V97.9266H65.7634ZM56.1738 70.8784C54.9783 69.6786 53.3223 68.9324 51.4974 68.9324C49.6682 68.9324 48.0163 69.6743 46.8167 70.8784C45.6211 72.0782 44.8776 73.7401 44.8776 75.5715C44.8776 77.4072 45.6169 79.0649 46.8167 80.2646C48.0122 81.4644 49.6682 82.2106 51.4974 82.2106C53.3265 82.2106 54.9784 81.4687 56.1738 80.2646C57.3694 79.0648 58.1129 77.403 58.1129 75.5715C58.1129 73.7358 57.3736 72.0781 56.1738 70.8784ZM17.1988 66.8594C19.5941 66.8594 21.7698 67.8345 23.3412 69.4116C24.9127 70.9887 25.8844 73.1678 25.8844 75.5759C25.8844 77.9796 24.9128 80.1588 23.3412 81.7359C22.5428 82.5371 21.5881 83.1858 20.5277 83.6267H20.9375C24.4015 83.6267 27.553 85.047 29.8343 87.3406C32.1155 89.6299 33.5349 92.7925 33.5349 96.269V99.0417L33.5054 99.2197L33.4547 99.3723L33.4378 99.4147L33.3998 99.4783C33.2223 99.7878 32.8886 99.9998 32.5042 99.9998H32.4957L1.9064 99.9955H1.89796C1.51353 99.9955 1.1798 99.7878 1.00237 99.4741L0.964351 99.4105L0.947452 99.3681L0.896759 99.2155L0.87986 99.1137L0.871412 99.0925L0.867188 99.0671V96.2691C0.867188 92.7927 2.2824 89.63 4.56786 87.3406C6.84911 85.0512 10.0005 83.6268 13.4647 83.6268H13.8702C12.8099 83.1859 11.8551 82.5372 11.0567 81.7359C9.48519 80.1589 8.51349 77.9798 8.51349 75.5759C8.51349 73.1678 9.48512 70.9887 11.0567 69.4117C12.6282 67.8346 14.7993 66.8594 17.1988 66.8594ZM31.4645 97.9265V96.2689C31.4645 93.3648 30.2773 90.7236 28.3679 88.8074C26.4585 86.8911 23.8266 85.6998 20.9328 85.6998H13.4596C10.5659 85.6998 7.93399 86.8911 6.02455 88.8074C4.11511 90.7236 2.92798 93.3648 2.92798 96.2689V97.9265H31.4645ZM21.8749 70.8783C20.6793 69.6785 19.0234 68.9323 17.1942 68.9323C15.365 68.9323 13.7131 69.6742 12.5177 70.8783C11.3221 72.0781 10.5786 73.7399 10.5786 75.5714C10.5786 77.4071 11.3179 79.0648 12.5177 80.2645C13.7132 81.4643 15.3692 82.2105 17.1942 82.2105C19.0234 82.2105 20.6752 81.4686 21.8749 80.2645C23.0704 79.0647 23.8139 77.4029 23.8139 75.5714C23.8139 73.7357 23.0704 72.078 21.8749 70.8783ZM55.3874 24.6852H45.388C45.1515 24.6852 44.936 24.7827 44.7797 24.9395C44.6234 25.0964 44.5262 25.3126 44.5262 25.55V36.3226C44.5262 36.56 44.6234 36.7763 44.7797 36.9331C44.936 37.09 45.1515 37.1875 45.388 37.1875L57.8963 37.1832C58.1329 37.1832 58.3483 37.0857 58.5046 36.9289C58.6609 36.772 58.7581 36.5558 58.7581 36.3184V25.5458C58.7581 25.3084 58.6609 25.0921 58.5046 24.9353C58.3483 24.7784 58.1329 24.6809 57.8963 24.6809L55.3874 24.6852ZM54.3482 22.6077V20.5432C54.3482 19.9581 54.1074 19.424 53.723 19.0382C53.3385 18.6524 52.8062 18.4107 52.2233 18.4107H51.0616C50.4786 18.4107 49.9464 18.6524 49.5619 19.0382C49.1775 19.424 48.9367 19.9581 48.9367 20.5432V22.6077H54.3482ZM46.8666 22.6077H45.388C44.5811 22.6077 43.8503 22.9384 43.318 23.4684C42.7899 23.9983 42.4604 24.736 42.4604 25.5458V36.3184C42.4604 37.1281 42.7899 37.8616 43.318 38.3958C43.846 38.93 44.5811 39.2564 45.388 39.2564H57.8963C58.7031 39.2564 59.434 38.9257 59.9663 38.3958C60.4944 37.8616 60.8239 37.1281 60.8239 36.3184V25.5458C60.8239 24.736 60.4944 24.0026 59.9663 23.4684C59.434 22.9342 58.7031 22.6077 57.8963 22.6077H56.4177V20.5432C56.4177 19.3858 55.9488 18.3343 55.1884 17.5712C54.428 16.8081 53.3803 16.3376 52.227 16.3376H51.0653C49.912 16.3376 48.8643 16.8124 48.1039 17.5712C47.3435 18.3343 46.8746 19.3858 46.8746 20.5432L46.8666 22.6077ZM52.0036 0.0657776L80.5868 10.9526C81.0219 11.1179 81.2796 11.5419 81.2542 11.9828C81.25 17.5789 80.4938 22.8609 79.066 27.8132H88.9851L93.4884 21.4158C92.9308 20.7375 92.5971 19.8683 92.5971 18.9229C92.5971 17.8418 93.0364 16.8583 93.7419 16.1503C94.4474 15.4422 95.4275 15.0014 96.5047 15.0014C97.582 15.0014 98.562 15.438 99.2676 16.1503C99.973 16.8583 100.412 17.8418 100.412 18.9229C100.412 20.004 99.9773 20.9875 99.2676 21.6956C98.5621 22.4036 97.582 22.8445 96.5047 22.8445C96.0358 22.8445 95.588 22.7639 95.1698 22.6113L90.3919 29.3945C90.2102 29.6913 89.8849 29.8863 89.5132 29.8863H78.4195C77.6253 32.2731 76.6747 34.5794 75.5722 36.8052H88.8072C88.9888 36.1396 89.3395 35.5418 89.8126 35.0669C90.5181 34.3589 91.4982 33.918 92.5754 33.918C93.6527 33.918 94.6327 34.3589 95.3383 35.0669C96.0437 35.7749 96.4831 36.7585 96.4831 37.8396C96.4831 38.9207 96.048 39.9042 95.3383 40.6122C94.6328 41.3202 93.6527 41.7612 92.5754 41.7612C91.4982 41.7612 90.5182 41.3202 89.8126 40.6122C89.3395 40.1374 88.9888 39.5396 88.8072 38.874L74.4907 38.8825C74.2753 39.2725 74.0556 39.6583 73.8359 40.0441C72.9319 41.5958 71.9518 43.105 70.8999 44.5677H78.4829C79.0532 44.5677 79.5179 45.034 79.5179 45.6064V52.7033C80.1811 52.8856 80.7768 53.2375 81.2499 53.7123C81.9554 54.4203 82.3948 55.4039 82.3948 56.485C82.3948 57.5661 81.9554 58.5496 81.2499 59.2577C80.5445 59.9656 79.5644 60.4066 78.4871 60.4066C77.4099 60.4066 76.4298 59.9657 75.7243 59.2577C75.0187 58.5496 74.5795 57.5661 74.5795 56.485C74.5795 55.4039 75.0146 54.4204 75.7243 53.7123C76.1974 53.2375 76.7931 52.8856 77.4564 52.7033V46.6451H69.3454C64.7449 52.4787 58.9489 57.5699 52.2019 61.8818C51.8471 62.1065 51.4077 62.0896 51.0782 61.8691C44.2556 57.5109 38.3114 52.5337 33.6017 46.6454H25.554V52.7036C26.2173 52.8859 26.813 53.2378 27.2861 53.7127C27.9916 54.4206 28.4309 55.4042 28.4309 56.4853C28.4309 57.5664 27.9916 58.5499 27.2861 59.258C26.5806 59.966 25.6005 60.4069 24.5233 60.4069C23.446 60.4069 22.466 59.966 21.7604 59.258C21.0549 58.5499 20.6156 57.5664 20.6156 56.4853C20.6156 55.4042 21.0549 54.4207 21.7604 53.7127C22.2336 53.2378 22.8292 52.8859 23.4925 52.7036V45.6067C23.4925 45.0343 23.9572 44.568 24.5275 44.568H32.0302C31.3501 43.6268 30.6995 42.6687 30.0827 41.6808C29.5124 40.7693 28.9632 39.8367 28.4478 38.8828H14.1822C14.0005 39.5484 13.6499 40.1462 13.1768 40.621C12.4713 41.329 11.4912 41.7699 10.4139 41.7699C9.3367 41.7699 8.35666 41.329 7.65111 40.621C6.94563 39.913 6.50627 38.9295 6.50627 37.8484C6.50627 36.7673 6.94562 35.7838 7.65111 35.0757C8.3566 34.3677 9.33669 33.9268 10.4139 33.9268C11.4912 33.9268 12.4712 34.3677 13.1768 35.0757C13.6499 35.5505 14.0005 36.1483 14.1822 36.814H27.3707C26.3061 34.6179 25.3894 32.3116 24.629 29.8951H13.4725C13.1008 29.8951 12.7755 29.7001 12.5938 29.4033L7.81592 22.6201C7.39769 22.7727 6.9499 22.8533 6.48095 22.8533C5.40371 22.8533 4.42368 22.4166 3.71813 21.7044C3.01264 20.9964 2.57328 20.0128 2.57328 18.9317C2.57328 17.8506 3.0084 16.8671 3.71813 16.159C4.42361 15.4511 5.4037 15.0101 6.48095 15.0101C7.5582 15.0101 8.53823 15.4468 9.24378 16.159C9.94926 16.867 10.3886 17.8506 10.3886 18.9317C10.3886 19.8771 10.0549 20.7462 9.49725 21.4246L14.0006 27.8219H24.0168C22.7115 22.9932 22.0186 17.715 22.0186 11.9275C22.0186 11.4866 22.2974 11.1093 22.6861 10.9609L51.2693 0.074127C51.5227 -0.0276212 51.7797 -0.0190136 52.0036 0.0657776ZM11.7145 36.5378C11.3808 36.2028 10.9203 35.9951 10.4134 35.9951C9.90226 35.9951 9.4418 36.2028 9.11232 36.5378C8.77858 36.8727 8.57158 37.3348 8.57158 37.8477C8.57158 38.3565 8.77858 38.8228 9.11232 39.1535C9.44604 39.4884 9.90652 39.6961 10.4134 39.6961C10.9246 39.6961 11.3808 39.4884 11.7145 39.1535C12.0483 38.8186 12.2553 38.3564 12.2553 37.8477C12.2511 37.3347 12.0483 36.8726 11.7145 36.5378ZM25.8158 55.1748C25.4821 54.8399 25.0216 54.6321 24.5147 54.6321C24.0035 54.6321 23.5431 54.8399 23.2136 55.1748C22.8798 55.5097 22.6728 55.9718 22.6728 56.4847C22.6728 56.9935 22.8798 57.4598 23.2136 57.7905C23.5473 58.1254 24.0078 58.3331 24.5147 58.3331C25.0259 58.3331 25.4821 58.1254 25.8158 57.7905C26.1495 57.4556 26.3565 56.9935 26.3565 56.4847C26.3565 55.9718 26.1495 55.5097 25.8158 55.1748ZM95.2071 20.2331C95.5409 20.568 96.0013 20.7757 96.5082 20.7757C97.0194 20.7757 97.4799 20.568 97.8136 20.2331C98.1473 19.8982 98.3543 19.4361 98.3543 18.9231C98.3543 18.4144 98.1473 17.948 97.8136 17.6174C97.4798 17.2825 97.0194 17.0747 96.5082 17.0747C95.9971 17.0747 95.5366 17.2825 95.2071 17.6174C94.8734 17.9523 94.6664 18.4144 94.6664 18.9231C94.6664 19.4361 94.8734 19.8982 95.2071 20.2331ZM76.6156 28.7799C76.6283 28.6104 76.679 28.4492 76.7635 28.3136C78.2886 23.4254 79.125 18.1939 79.1925 12.6362L51.64 2.13917L24.0874 12.632C24.2015 23.7782 27.0023 32.9143 31.8098 40.5788C36.6256 48.2523 43.4604 54.4763 51.6396 59.7791C60.2871 54.1533 67.2743 47.196 72.0479 38.9975C73.9236 35.7798 75.4538 32.3708 76.6156 28.7799ZM92.5846 35.9955C92.0734 35.9955 91.6129 36.2033 91.2792 36.5382C90.9455 36.8731 90.7385 37.3352 90.7385 37.8482C90.7385 38.3569 90.9455 38.8233 91.2792 39.1539C91.613 39.4888 92.0734 39.6966 92.5846 39.6966C93.0957 39.6966 93.5562 39.4888 93.8857 39.1539C94.2194 38.819 94.4264 38.3569 94.4264 37.8482C94.4264 37.3352 94.2194 36.8731 93.8857 36.5382C93.5519 36.2033 93.0915 35.9955 92.5846 35.9955ZM78.479 54.6325C77.9678 54.6325 77.5073 54.8403 77.1736 55.1752C76.8399 55.5101 76.6329 55.9722 76.6329 56.4852C76.6329 56.9939 76.8399 57.4603 77.1736 57.7909C77.5074 58.1258 77.9678 58.3336 78.479 58.3336C78.9901 58.3336 79.4506 58.1258 79.7801 57.7909C80.1138 57.456 80.3208 56.9939 80.3208 56.4852C80.3208 55.9722 80.1138 55.5101 79.7801 55.1752C79.4506 54.8403 78.9901 54.6325 78.479 54.6325ZM51.6413 7.19238L28.7909 15.8961C29.3401 24.392 31.6763 31.5908 35.5501 37.8313C39.4367 44.0931 44.882 49.4095 51.6283 54.1197C58.3494 49.3503 63.9213 43.6354 67.8925 36.962C71.5805 30.7724 73.8913 23.7472 74.4742 15.8917L51.6413 7.19238ZM27.3547 14.23C26.9112 14.3953 26.6535 14.8362 26.6915 15.2856C27.1731 24.4641 29.636 32.2144 33.8013 38.9205C37.9582 45.619 43.8049 51.2573 51.0583 56.2259C51.4385 56.4845 51.9243 56.459 52.2707 56.1919C59.4692 51.1851 65.4343 45.1272 69.6672 38.0173C73.6382 31.3486 76.08 23.7595 76.5869 15.2506C76.6164 14.7758 76.3207 14.3603 75.8941 14.212L52.0044 5.11822C51.7594 5.02495 51.5059 5.03343 51.2778 5.11822L27.3547 14.23Z" fill="white"/>
</svg>
