<svg width="97" height="100" viewBox="0 0 97 100" fill="none" xmlns="http://www.w3.org/2000/svg">
<path d="M47.9259 0.0283147C48.0483 -0.00939105 48.9538 -0.00948541 49.0743 0.0283147C58.3548 2.93742 64.16 9.74557 67.3956 14.9443C67.4361 15.0174 72.6076 25.0301 72.1837 35.5342L79.1163 38.7451C82.6781 40.3946 85.5207 43.2775 87.1192 46.8623L94.9093 64.331C96.4955 67.8884 96.4939 71.9681 94.9054 75.5244C93.3169 79.0809 90.2795 81.8055 86.5714 82.998L82.1505 84.4199V87.0449C82.1505 88.837 81.3896 90.4544 80.1759 91.5937C81.367 92.414 82.1505 93.7865 82.1505 95.3389V95.4551C82.1504 97.9612 80.1107 100 77.6046 100H19.3946C16.8885 100 14.8498 97.9612 14.8497 95.4551V95.3389C14.8497 93.7864 15.6332 92.4141 16.8243 91.5937C15.6104 90.4544 14.8497 88.8372 14.8497 87.0449V84.4199L10.4288 82.998C6.72066 81.8055 3.68248 79.081 2.09384 75.5244C0.505486 71.9681 0.504547 67.8885 2.09091 64.331L9.87997 46.8623C11.4785 43.2775 14.3211 40.3948 17.8829 38.7451L24.8155 35.5342C24.5557 24.1557 29.5594 15.0214 29.6036 14.9443C32.8394 9.74555 38.6454 2.93731 47.9259 0.0283147ZM19.3946 93.2861C18.2631 93.2861 17.3429 94.2073 17.3429 95.3389V95.4551C17.343 96.5865 18.2631 97.5068 19.3946 97.5068H77.6046C78.7361 97.5068 79.6572 96.5866 79.6573 95.4551V95.3389C79.6573 94.2073 78.7362 93.2861 77.6046 93.2861H19.3946ZM21.0909 51.4727C19.0241 51.4727 17.3429 53.1539 17.3429 55.2207V87.0449C17.3429 89.1117 19.0241 90.7939 21.0909 90.7939H75.9093C77.9759 90.7938 79.6573 89.1116 79.6573 87.0449V55.2207C79.6573 53.154 77.9759 51.4728 75.9093 51.4727H21.0909ZM18.9308 41.0078C15.9161 42.4041 13.5104 44.8438 12.1573 47.8779L4.36728 65.3457C3.06889 68.2573 3.07001 71.5969 4.37021 74.5078C5.67035 77.4187 8.15663 79.6479 11.1915 80.624L14.8497 81.8008V55.2207C14.8497 51.7794 17.6495 48.9795 21.0909 48.9795H31.6632C29.8502 47.4674 28.4814 45.8389 27.2599 43.8955C26.1359 42.1072 25.4723 40.13 25.1173 38.1416L18.9308 41.0078ZM71.8819 38.1426C71.5269 40.1309 70.8633 42.1073 69.7393 43.8955C68.5178 45.8388 67.15 47.4674 65.337 48.9795H75.9093C79.3504 48.9797 82.1505 51.7795 82.1505 55.2207V81.8008L85.8077 80.624C88.8427 79.6479 91.3298 77.4187 92.63 74.5078C93.9301 71.597 93.9302 68.2573 92.6319 65.3457L84.8429 47.8779C83.4898 44.8438 81.0841 42.4041 78.0694 41.0078L71.8819 38.1426ZM55.9923 65.3555C56.6806 65.3555 57.2384 65.9132 57.2384 66.6016V72.5957C57.2384 73.2841 56.6806 73.8428 55.9923 73.8428H41.0069C40.3186 73.8428 39.7608 73.2841 39.7608 72.5957V66.6016C39.7608 65.9132 40.3186 65.3555 41.0069 65.3555H55.9923ZM42.253 67.8476V71.3496H54.7462V67.8476H42.253ZM27.4649 30.9668C27.0583 34.5219 27.1662 39.0616 29.3712 42.5693C30.8761 44.9635 32.5822 46.8895 35.9434 48.9795H39.4181C35.9576 46.0669 32.9202 41.8323 32.2022 36.9111C29.6642 36.4787 27.7249 34.2647 27.7247 31.6055C27.7247 31.2745 27.7561 30.9504 27.8136 30.6357C27.6969 30.745 27.5805 30.8556 27.4649 30.9668ZM48.5001 22.1152C43.6632 22.1152 38.9052 23.3722 34.5587 25.7402C34.5208 26.0801 34.5332 34.6757 34.5333 34.71C34.5333 40.0859 37.9049 44.149 39.9151 46.0928C41.168 47.3043 42.448 48.2597 43.6534 48.9795H53.3468C54.5522 48.2597 55.8322 47.3043 57.085 46.0928C59.0953 44.149 62.4668 40.0857 62.4669 34.7148L62.5001 26.6787C62.5001 26.396 62.48 26.0796 62.4425 25.7412C58.0956 23.3727 53.3374 22.1153 48.5001 22.1152ZM69.1866 30.6367C69.2439 30.951 69.2755 31.2748 69.2755 31.6055C69.2753 34.2645 67.3366 36.4784 64.7989 36.9111C64.082 41.8317 61.0433 46.0666 57.5821 48.9795H61.0558C64.4171 46.8894 66.1241 44.9636 67.629 42.5693C69.837 39.0564 69.9465 34.5233 69.5401 30.9727C69.4229 30.8598 69.305 30.7476 69.1866 30.6367ZM32.0167 28.9297C30.9629 29.3616 30.2179 30.398 30.2179 31.6055C30.218 32.821 30.9731 33.8616 32.0382 34.2881L32.0167 28.9297ZM64.962 34.2881C66.027 33.8616 66.7822 32.8209 66.7823 31.6055C66.7823 30.398 66.0373 29.3616 64.9835 28.9297L64.962 34.2881ZM48.4913 2.46386C40.0671 5.16882 34.7414 11.42 31.7452 16.2217C30.2081 19.1688 28.9809 22.8153 28.0831 27.0947C34.0574 22.2527 41.1879 19.6221 48.5001 19.6221C55.8121 19.6221 62.9429 22.2528 68.9171 27.0947C68.0191 22.8153 66.791 19.1688 65.254 16.2217C62.2578 11.4202 56.9317 5.16872 48.5079 2.46386H48.4913Z" fill="white"/>
</svg>
