<svg width="121" height="100" viewBox="0 0 121 100" fill="none" xmlns="http://www.w3.org/2000/svg">
<path fill-rule="evenodd" clip-rule="evenodd" d="M103.268 14.2821C103.268 13.9234 103.122 13.5808 102.863 13.332C102.587 13.0638 102.268 12.905 101.932 12.9571L101.917 12.9591L101.901 12.9601C71.1267 13.9051 61.7543 0.793802 61.6153 0.598414L61.6094 0.589581C61.3719 0.224728 60.9585 0.00395992 60.5118 0.000697646C60.3456 -0.0065913 60.1231 0.0432422 59.9129 0.149881C59.7043 0.255643 59.5178 0.406194 59.3975 0.578785C59.2516 0.790664 49.8606 13.8012 19.0995 12.9601L19.07 12.9591L19.0415 12.9512C18.7635 12.8768 18.4308 13.0461 18.1377 13.3311C17.8788 13.5799 17.7315 13.9234 17.7315 14.2821V30.4558H7.11389V27.7558L7.29288 27.7018C9.40477 27.0678 10.9734 25.1737 11.0694 22.8926L11.0744 22.6708C11.0744 19.853 8.84595 17.541 6.05665 17.3993L5.78521 17.3924C2.87059 17.3924 0.5 19.7616 0.5 22.6708L0.504917 22.8926C0.600777 25.1736 2.16688 27.0678 4.27754 27.7018L4.45653 27.7558V31.7827L4.46341 31.9182C4.5319 32.5856 5.09897 33.1087 5.78521 33.1087H17.819L17.8279 33.3511C17.9579 37.0329 18.3406 40.663 18.9697 44.2259L19.0218 44.5203H11.5907L11.5366 44.3417C10.8808 42.1661 8.87876 40.5679 6.4943 40.5679C3.5798 40.568 1.20517 42.9375 1.20515 45.8463C1.20515 48.7548 3.57953 51.1245 6.4943 51.1246C8.87851 51.1246 10.8808 49.5267 11.5366 47.3509L11.5907 47.1722H19.5234L19.5667 47.3695C20.3821 51.0891 21.4772 54.7178 22.8122 58.2442L22.941 58.5838H5.78521C5.05311 58.5838 4.45653 59.1798 4.45653 59.9108V63.9368L4.27754 63.9908C2.09885 64.6451 0.500115 66.6424 0.5 69.0218C0.5 71.9307 2.87086 74.3001 5.78521 74.3001L6.05665 74.2933C8.84572 74.1515 11.0744 71.8397 11.0744 69.0218C11.0742 66.6426 9.47309 64.6452 7.29288 63.9908L7.11389 63.9368V61.2367H23.9923L24.0572 61.3889C31.0441 77.6621 43.5055 91.349 59.8893 99.8479C60.081 99.9483 60.2925 100 60.502 100C60.7113 100 60.9219 99.9482 61.1137 99.8479C77.4961 91.3509 89.9584 77.6631 96.9447 61.3889L97.0096 61.2367H113.882V63.9368L113.703 63.9908C111.525 64.6452 109.926 66.6424 109.926 69.0218C109.926 71.9306 112.297 74.3 115.211 74.3001C118.125 74.3001 120.5 71.9307 120.5 69.0218C120.5 66.6426 118.899 64.645 116.72 63.9908L116.541 63.9368V59.9108C116.541 59.18 115.943 58.5838 115.211 58.5838H98.061L98.1898 58.2442C99.5247 54.718 100.619 51.0899 101.434 47.3705L101.478 47.1732H109.409L109.463 47.3518C110.119 49.5275 112.121 51.1246 114.506 51.1246L114.777 51.1178C117.566 50.976 119.791 48.6645 119.791 45.8463C119.791 43.0284 117.566 40.7165 114.777 40.5748L114.506 40.5679C112.121 40.5679 110.119 42.1659 109.463 44.3417L109.409 44.5203H101.979L102.031 44.2259C102.66 40.6627 103.042 37.0327 103.172 33.3511L103.181 33.1087H115.211C115.897 33.1087 116.465 32.5855 116.534 31.9182L116.541 31.7827V27.7567L116.72 27.7028C118.899 27.0483 120.5 25.0503 120.5 22.6708C120.5 19.7621 118.126 17.3924 115.211 17.3924C112.296 17.3925 109.926 19.7617 109.926 22.6708C109.926 25.0502 111.524 27.0473 113.703 27.7018L113.882 27.7558V30.4558H103.268V14.2821ZM31.3212 61.381L31.2533 61.2367H26.9103L27.0706 61.5911C33.8055 76.5198 45.3369 89.104 60.3839 97.1145L60.502 97.1773L60.621 97.1145C75.666 89.1037 87.1958 76.5192 93.9304 61.5911L94.0907 61.2367H89.7447L89.6768 61.381C83.7939 73.9008 73.9225 84.4159 61.1137 91.0598C60.97 91.135 60.8158 91.1829 60.6593 91.2021L60.502 91.2119C60.2926 91.2119 60.0811 91.1602 59.8893 91.0598C47.0785 84.4159 37.2058 73.9014 31.3212 61.381ZM86.8208 61.2367H81.2219V62.7963C81.2219 64.4314 79.8845 65.7653 78.2459 65.7653H44.2805C42.6932 65.7651 41.3892 64.5133 41.3094 62.9484L41.3055 62.7963V61.2367H34.1772L34.3592 61.5999C39.947 72.7772 48.9101 82.181 60.383 88.3254L60.502 88.3892L60.621 88.3254C72.092 82.181 81.0527 72.7766 86.6389 61.5999L86.8208 61.2367ZM78.3118 28.6489L44.2805 28.5831H44.0287V28.8344L43.9638 62.7963V63.0476H44.2156L78.2459 63.1123C78.4158 63.1123 78.5626 62.9731 78.5635 62.7973V28.6489H78.3118ZM72.9135 32.6533C73.4992 32.1259 74.4036 32.1434 74.9679 32.7063L75.0673 32.8153C75.5321 33.3803 75.5167 34.2075 75.022 34.7556L74.9679 34.8135L63.6786 46.0789L74.9679 57.3452L75.021 57.4011C75.5168 57.9491 75.5324 58.777 75.0673 59.3425L74.9679 59.4514C74.4387 59.9796 73.6107 60.0278 73.0266 59.5967L72.9135 59.5044L72.8535 59.4475L61.5681 48.1851L50.2856 59.4456L50.2227 59.5044C49.6737 59.9992 48.845 60.0145 48.2783 59.5506L48.1682 59.4514C47.6038 58.888 47.5852 57.9846 48.1141 57.4002L48.1711 57.3403L59.4565 46.0789L48.1682 34.8135L48.1141 34.7556C47.5863 34.171 47.6042 33.2692 48.1682 32.7063L48.2773 32.6072C48.8439 32.1431 49.6735 32.1588 50.2227 32.6533L50.2856 32.7122L61.5681 43.9717L72.8535 32.7102L72.9135 32.6533ZM91.7077 47.1732L91.6398 47.4785C90.8029 51.2513 89.6389 54.9214 88.1288 58.4317L88.0639 58.5838H81.2219V47.1732H91.7077ZM98.7396 47.1732L98.6697 47.4804C97.8114 51.231 96.6666 54.8845 95.261 58.4248L95.1981 58.5838H90.9121L91.0527 58.2383C92.4734 54.737 93.617 51.1115 94.4034 47.3725L94.4457 47.1732H98.7396ZM100.526 33.1087L100.516 33.3688C100.38 37.0761 99.9815 40.7314 99.3218 44.3142L99.2834 44.5203H94.9079L94.9542 44.2298C95.4829 40.9041 95.7842 37.5176 95.7842 34.0794V33.1087H100.526ZM93.1269 34.0794C93.1269 37.5518 92.8046 40.9653 92.2447 44.3103L92.2093 44.5203H81.2219V33.1087H93.1269V34.0794ZM117.133 45.8463C117.133 47.2023 116.099 48.3231 114.774 48.458L114.506 48.4717C113.056 48.4717 111.875 47.2933 111.875 45.8463C111.875 44.3994 113.056 43.2208 114.506 43.2208C115.956 43.2209 117.132 44.4 117.133 45.8463ZM117.828 69.2907C117.693 70.6123 116.57 71.6472 115.211 71.6472C113.761 71.6471 112.584 70.469 112.584 69.0228C112.584 67.5763 113.76 66.3974 115.211 66.3973C116.661 66.3973 117.842 67.5757 117.842 69.0228L117.828 69.2907ZM117.828 22.9387C117.693 24.2604 116.57 25.2962 115.211 25.2962C113.761 25.2961 112.584 24.1171 112.584 22.6708C112.584 21.2243 113.76 20.0454 115.211 20.0453C116.661 20.0453 117.842 21.2237 117.842 22.6708L117.828 22.9387ZM60.679 3.55657C64.1654 7.16868 75.2453 15.9963 100.354 15.6434L100.61 15.6395V30.4558H95.7852V20.7274C95.7852 20.3684 95.6389 20.0251 95.38 19.7764C95.1071 19.5111 94.7928 19.356 94.4428 19.4034L94.43 19.4054H94.4162C69.441 20.0959 61.7423 9.56924 61.6251 9.39928C61.4168 9.07334 61.0693 8.85408 60.6878 8.80156L60.5216 8.7888H60.498C60.0621 8.78884 59.6487 9.00862 59.3975 9.36984C59.1602 9.71382 51.4124 20.1139 26.5799 19.4054L26.5523 19.4044L26.5268 19.3985C26.236 19.3273 25.9075 19.4941 25.618 19.7754C25.3591 20.0241 25.2118 20.3684 25.2118 20.7274V30.4558H20.3899V15.6395L20.6456 15.6434C45.7117 16.0348 56.8221 7.16562 60.3171 3.55657L60.498 3.36911L60.679 3.55657ZM60.6967 12.3437C63.7981 15.4649 73.0127 22.3722 92.8712 22.0848L93.1269 22.0809V30.4558H81.2219V28.9002C81.2218 27.2651 79.8844 25.9312 78.2459 25.9312H44.2805C42.6421 25.9314 41.3056 27.2652 41.3055 28.9002V30.4558H27.8692V22.0819L28.1239 22.0848C48.4198 22.2919 57.2945 15.4684 60.3367 12.3457L60.5157 12.1621L60.6967 12.3437ZM41.3055 33.1087V44.5203H28.7878L28.7524 44.3103C28.1922 40.9642 27.8692 37.5492 27.8692 34.0755V33.1087H41.3055ZM25.2118 34.0755C25.2118 37.5152 25.5142 40.903 26.0429 44.2298L26.0891 44.5203H21.7175L21.6792 44.3142C21.019 40.7313 20.6215 37.0761 20.4852 33.3688L20.4754 33.1087H25.2118V34.0755ZM26.5504 47.1722L26.5926 47.3715C27.3796 51.1109 28.5234 54.7371 29.9443 58.2383L30.085 58.5838H25.8019L25.739 58.4248C24.3333 54.8846 23.1889 51.2304 22.3303 47.4794L22.2604 47.1722H26.5504ZM41.3055 47.1722V58.5838H32.9341L32.8692 58.4317C31.3587 54.9212 30.1942 51.2506 29.3572 47.4775L29.2893 47.1722H41.3055ZM9.1251 45.8463C9.1251 47.2933 7.94427 48.4717 6.4943 48.4717C5.04446 48.4716 3.86349 47.2932 3.86349 45.8463C3.86368 44.3995 5.04453 43.221 6.4943 43.2208C7.9442 43.2208 9.12492 44.3994 9.1251 45.8463ZM8.40224 69.2907C8.26698 70.6123 7.14433 71.6472 5.78521 71.6472C4.33495 71.6472 3.15861 70.4691 3.15834 69.0228C3.15834 67.5763 4.33471 66.3973 5.78521 66.3973C7.23518 66.3973 8.41601 67.5757 8.41601 69.0228L8.40224 69.2907ZM8.40224 22.9387C8.26711 24.2604 7.14451 25.2962 5.78521 25.2962C4.33476 25.2962 3.15846 24.1171 3.15834 22.6708C3.15834 21.2243 4.33471 20.0453 5.78521 20.0453C7.23518 20.0453 8.41601 21.2237 8.41601 22.6708L8.40224 22.9387Z" fill="white"/>
</svg>
