<svg width="67" height="100" viewBox="0 0 67 100" fill="none" xmlns="http://www.w3.org/2000/svg">
<path d="M55.1499 0C57.8999 3.47012e-05 60.1499 2.25002 60.1499 5V49.5C60.2166 49.5167 60.3501 49.5498 60.3501 49.5498L65.4663 50.5498C66.2496 50.6998 66.8169 51.3836 66.8169 52.1836V58.333H63.4829V53.5498L59.7163 52.8164C56.8165 52.2331 54.0833 51.2 51.6001 49.7334L46.8169 46.9336L42.0327 49.7334C39.5661 51.2 36.833 52.2331 33.9331 52.8164L30.1665 53.5498V69.3838C30.1667 76.9503 34.4667 83.7671 41.3999 87.1504L46.8335 89.8164L52.2661 87.1504C59.1993 83.7671 63.4993 76.9503 63.4995 69.3838V68.333H66.8335V69.3838C66.8334 75.5669 64.383 81.2999 60.1665 85.5498V95C60.1665 97.75 57.9165 100 55.1665 100H5.1665C2.4165 100 0.166505 97.75 0.166504 95V5C0.166504 2.25 2.4165 0 5.1665 0H55.1499ZM5.1665 3.33301C4.24984 3.33301 3.49951 4.08333 3.49951 5V95C3.49951 95.9167 4.24984 96.667 5.1665 96.667H55.1665C56.0832 96.667 56.8335 95.9167 56.8335 95V88.333C55.8668 88.9997 54.8329 89.6171 53.7329 90.1504L47.5669 93.167C47.3337 93.2836 47.0834 93.333 46.8335 93.333C46.5836 93.333 46.3333 93.2835 46.1001 93.167L39.9331 90.1504C31.8499 86.2005 26.8337 78.2336 26.8335 69.3838V63.0996C22.9002 62.5829 19.15 61.1163 15.8833 58.833C9.16667 54.183 5.1665 46.5163 5.1665 38.333C5.16668 24.5498 16.3833 13.333 30.1665 13.333C43.9497 13.333 55.1663 24.5498 55.1665 38.333C55.1665 41.2996 54.6168 44.2167 53.5835 47C54.6168 47.5999 55.7003 48.1166 56.8335 48.5332V5C56.8335 4.08333 56.0832 3.33301 55.1665 3.33301H5.1665ZM56.6001 59.2002L46.6001 75.8662C46.3501 76.2829 45.933 76.5671 45.4497 76.6504C45.3499 76.667 45.2664 76.667 45.1665 76.667C44.7832 76.667 44.4001 76.5332 44.1001 76.2832L37.4331 70.7334L39.5669 68.167H39.5835L44.7495 72.4834L53.7495 57.4834L56.6001 59.2002ZM66.8335 65H63.4995V61.667H66.8335V65ZM23.4995 46.667C20.7497 46.6672 18.4995 48.9171 18.4995 51.667V56.5664C21.0328 58.1997 23.8668 59.2834 26.8335 59.7334V52.1836C26.8335 51.3836 27.3998 50.6998 28.1831 50.5498L33.3003 49.5498L33.2827 49.5332C35.4494 49.1165 37.4834 48.3838 39.3667 47.3838C38.6168 46.9338 37.75 46.6671 36.8335 46.667H23.4995ZM30.1831 16.667C18.2332 16.667 8.51629 26.3832 8.51611 38.333C8.51611 44.2663 10.9831 49.867 15.1831 53.917V51.667C15.1831 47.0671 18.9163 43.3332 23.5161 43.333H36.8501C38.9665 43.3331 40.9995 44.1666 42.5327 45.5996L45.9995 43.5664C46.5161 43.2664 47.1665 43.2665 47.6831 43.5664L50.6665 45.3164H50.6831C51.4497 43.0665 51.8501 40.7163 51.8501 38.333C51.8499 26.3832 42.133 16.667 30.1831 16.667ZM30.1665 26.667C34.7665 26.667 38.4995 30.4 38.4995 35C38.4995 39.6 34.7665 43.333 30.1665 43.333C25.5665 43.333 21.8335 39.6 21.8335 35C21.8335 30.4 25.5665 26.667 30.1665 26.667ZM30.1665 30C27.4165 30 25.1665 32.25 25.1665 35C25.1665 37.75 27.4165 40 30.1665 40C32.9165 40 35.1665 37.75 35.1665 35C35.1665 32.25 32.9165 30 30.1665 30ZM36.8335 10H23.4995V6.66699H36.8335V10ZM43.4995 10H40.1665V6.66699H43.4995V10Z" fill="white"/>
</svg>
